<?xml version="1.0" encoding="UTF-8"?>
<svg version="1.1" xmlns="http://www.w3.org/2000/svg" width="500" height="500">
<path d="M0 0 C2.08672138 0.01071862 4.17258213 0.00006135 6.25927734 -0.01269531 C23.20786552 -0.03103 23.20786552 -0.03103 27.21630859 3.82324219 C27.89693359 4.53480469 27.89693359 4.53480469 28.59130859 5.26074219 C30.59014728 5.60097005 32.59021581 5.93403316 34.59130859 6.26074219 C35.95863887 7.21372996 37.29395353 8.2144881 38.59130859 9.26074219 C39.36216797 9.55335938 40.13302734 9.84597656 40.92724609 10.14746094 C43.75002487 11.3270679 45.76623851 12.73399071 48.15380859 14.63574219 C48.89759766 15.22097656 49.64138672 15.80621094 50.40771484 16.40917969 C52.60090343 18.26887806 54.65831839 20.13050808 56.59130859 22.26074219 C56.59130859 22.92074219 56.59130859 23.58074219 56.59130859 24.26074219 C57.23068359 24.50824219 57.87005859 24.75574219 58.52880859 25.01074219 C61.13560959 26.59062158 60.88325937 27.4285453 61.59130859 30.26074219 C62.21005859 30.57011719 62.82880859 30.87949219 63.46630859 31.19824219 C66.35643829 32.64330703 67.19512011 34.3985558 68.59130859 37.26074219 C68.59130859 38.25074219 68.59130859 39.24074219 68.59130859 40.26074219 C69.06568359 40.73511719 69.54005859 41.20949219 70.02880859 41.69824219 C71.86594799 43.53538158 72.26200291 44.70862312 72.59130859 47.26074219 C72.26130859 47.92074219 71.93130859 48.58074219 71.59130859 49.26074219 C72.58130859 49.26074219 73.57130859 49.26074219 74.59130859 49.26074219 C74.72408203 49.93621094 74.85685547 50.61167969 74.99365234 51.30761719 C75.17025391 52.19964844 75.34685547 53.09167969 75.52880859 54.01074219 C75.70283203 54.89246094 75.87685547 55.77417969 76.05615234 56.68261719 C76.52985486 59.14248622 76.52985486 59.14248622 77.11645508 61.03930664 C77.71897062 63.85796419 77.72110615 66.49933563 77.72412109 69.38183594 C77.72541016 70.56455078 77.72669922 71.74726563 77.72802734 72.96582031 C77.72416016 74.19751953 77.72029297 75.42921875 77.71630859 76.69824219 C77.72017578 77.92607422 77.72404297 79.15390625 77.72802734 80.41894531 C77.72609375 82.19495117 77.72609375 82.19495117 77.72412109 84.00683594 C77.72299316 85.08634521 77.72186523 86.16585449 77.72070312 87.27807617 C77.32805919 96.32888932 73.8473403 104.97011757 68.59130859 112.26074219 C67.57571459 114.25286889 66.57341231 116.25189369 65.59130859 118.26074219 C64.93130859 119.25074219 64.27130859 120.24074219 63.59130859 121.26074219 C62.93130859 121.26074219 62.27130859 121.26074219 61.59130859 121.26074219 C61.52943359 121.83824219 61.46755859 122.41574219 61.40380859 123.01074219 C60.26497664 126.16443068 58.22809723 127.22322369 55.59130859 129.26074219 C54.73627486 130.28467148 53.9031624 131.32724925 53.09130859 132.38574219 C50.51177663 135.35220394 49.16874744 135.97653337 45.59130859 137.26074219 C44.93130859 137.92074219 44.27130859 138.58074219 43.59130859 139.26074219 C41.3526521 141.49939868 39.52560327 142.16038169 36.59130859 143.26074219 C35.93130859 143.77636719 35.27130859 144.29199219 34.59130859 144.82324219 C32.21569048 146.5307177 30.45497893 146.72796631 27.59130859 147.26074219 C26.53943359 147.77636719 25.48755859 148.29199219 24.40380859 148.82324219 C19.91950222 150.86697474 15.42268668 150.52321142 10.59130859 150.26074219 C10.59130859 150.92074219 10.59130859 151.58074219 10.59130859 152.26074219 C9.27130859 152.26074219 7.95130859 152.26074219 6.59130859 152.26074219 C6.59130859 151.60074219 6.59130859 150.94074219 6.59130859 150.26074219 C3.62130859 150.26074219 0.65130859 150.26074219 -2.40869141 150.26074219 C-2.40869141 150.92074219 -2.40869141 151.58074219 -2.40869141 152.26074219 C-3.72869141 152.26074219 -5.04869141 152.26074219 -6.40869141 152.26074219 C-6.40869141 151.60074219 -6.40869141 150.94074219 -6.40869141 150.26074219 C-7.06095703 150.28394531 -7.71322266 150.30714844 -8.38525391 150.33105469 C-15.27388232 150.47329775 -20.27012755 149.42903321 -26.40869141 146.26074219 C-27.21306641 145.95136719 -28.01744141 145.64199219 -28.84619141 145.32324219 C-35.82407602 142.42997296 -35.82407602 142.42997296 -37.40869141 139.26074219 C-39.25840837 138.21053116 -39.25840837 138.21053116 -41.40869141 137.26074219 C-42.74202474 136.59407552 -44.07535807 135.92740885 -45.40869141 135.26074219 C-45.40869141 134.60074219 -45.40869141 133.94074219 -45.40869141 133.26074219 C-45.98103516 133.17695313 -46.55337891 133.09316406 -47.14306641 133.00683594 C-50.07900113 132.04000226 -51.50837452 130.52532596 -53.65869141 128.32324219 C-54.36509766 127.61296875 -55.07150391 126.90269531 -55.79931641 126.17089844 C-57.40869141 124.26074219 -57.40869141 124.26074219 -57.40869141 122.26074219 C-58.06869141 122.26074219 -58.72869141 122.26074219 -59.40869141 122.26074219 C-59.73869141 121.27074219 -60.06869141 120.28074219 -60.40869141 119.26074219 C-61.39869141 118.30167969 -61.39869141 118.30167969 -62.40869141 117.32324219 C-64.56874291 115.09568908 -64.78736918 114.18983269 -65.40869141 111.26074219 C-65.84181641 110.53886719 -66.27494141 109.81699219 -66.72119141 109.07324219 C-70.72711522 102.3967025 -72.97995376 97.11559952 -72.40869141 89.26074219 C-73.06869141 89.26074219 -73.72869141 89.26074219 -74.40869141 89.26074219 C-74.40869141 79.92740885 -74.40869141 70.59407552 -74.40869141 61.26074219 C-73.74869141 61.26074219 -73.08869141 61.26074219 -72.40869141 61.26074219 C-72.47056641 60.22949219 -72.53244141 59.19824219 -72.59619141 58.13574219 C-72.39417769 53.96079211 -71.37671682 51.88190894 -69.40869141 48.26074219 C-69.22306641 47.05417969 -69.22306641 47.05417969 -69.03369141 45.82324219 C-68.23810884 42.56135366 -66.60700989 40.53300024 -64.56494141 37.90917969 C-63.2121604 36.14762283 -63.2121604 36.14762283 -62.40869141 33.26074219 C-61.74869141 32.60074219 -61.08869141 31.94074219 -60.40869141 31.26074219 C-59.68681641 30.18824219 -58.96494141 29.11574219 -58.22119141 28.01074219 C-55.87271488 24.66573111 -53.23032779 22.17590633 -50.05712891 19.62011719 C-48.35770008 18.28412138 -48.35770008 18.28412138 -46.88525391 16.58886719 C-45.40869141 15.26074219 -45.40869141 15.26074219 -42.40869141 15.26074219 C-42.07869141 14.27074219 -41.74869141 13.28074219 -41.40869141 12.26074219 C-36.66800231 8.89734803 -30.33033571 5.26074219 -24.40869141 5.26074219 C-24.03744141 4.80699219 -23.66619141 4.35324219 -23.28369141 3.88574219 C-17.27608718 -1.32084815 -7.46158452 -0.04561514 0 0 Z M-6.40869141 29.26074219 C-9.72767198 30.00439347 -13.0648227 30.63954919 -16.40869141 31.26074219 C-16.40869141 31.92074219 -16.40869141 32.58074219 -16.40869141 33.26074219 C-17.39869141 32.93074219 -18.38869141 32.60074219 -19.40869141 32.26074219 C-19.73869141 33.25074219 -20.06869141 34.24074219 -20.40869141 35.26074219 C-23.47119141 36.44824219 -23.47119141 36.44824219 -26.40869141 37.26074219 C-26.40869141 37.92074219 -26.40869141 38.58074219 -26.40869141 39.26074219 C-27.83181641 39.60105469 -27.83181641 39.60105469 -29.28369141 39.94824219 C-32.56390312 40.91167033 -32.56390312 40.91167033 -33.47119141 43.57324219 C-33.78056641 44.46011719 -34.08994141 45.34699219 -34.40869141 46.26074219 C-35.21306641 47.04449219 -36.01744141 47.82824219 -36.84619141 48.63574219 C-40.84411884 52.73118005 -42.40869141 56.56114627 -42.40869141 62.26074219 C-43.39869141 62.75574219 -43.39869141 62.75574219 -44.40869141 63.26074219 C-44.07869141 63.59074219 -43.74869141 63.92074219 -43.40869141 64.26074219 C-44.06869141 64.92074219 -44.72869141 65.58074219 -45.40869141 66.26074219 C-45.70147665 68.16380733 -45.70147665 68.16380733 -45.63916016 70.32324219 C-45.63722656 71.11988281 -45.63529297 71.91652344 -45.63330078 72.73730469 C-45.62105469 73.57003906 -45.60880859 74.40277344 -45.59619141 75.26074219 C-45.59554687 76.09347656 -45.59490234 76.92621094 -45.59423828 77.78417969 C-45.69550063 82.17184689 -45.69550063 82.17184689 -44.40869141 86.26074219 C-43.74869141 86.26074219 -43.08869141 86.26074219 -42.40869141 86.26074219 C-42.73869141 87.25074219 -43.06869141 88.24074219 -43.40869141 89.26074219 C-42.42973137 92.80005923 -41.14844251 96.02977586 -39.40869141 99.26074219 C-38.74869141 99.26074219 -38.08869141 99.26074219 -37.40869141 99.26074219 C-37.14056641 99.81761719 -36.87244141 100.37449219 -36.59619141 100.94824219 C-34.83206719 104.38364198 -33.15076035 107.51867324 -30.40869141 110.26074219 C-28.33995106 110.90326569 -28.33995106 110.90326569 -26.40869141 111.26074219 C-26.40869141 111.92074219 -26.40869141 112.58074219 -26.40869141 113.26074219 C-25.74869141 113.26074219 -25.08869141 113.26074219 -24.40869141 113.26074219 C-23.91369141 114.25074219 -23.91369141 114.25074219 -23.40869141 115.26074219 C-21.55897444 116.31095322 -21.55897444 116.31095322 -19.40869141 117.26074219 C-18.81056641 117.59074219 -18.21244141 117.92074219 -17.59619141 118.26074219 C-14.6279286 119.61766233 -11.54895739 120.38844608 -8.40869141 121.26074219 C-7.41869141 121.75574219 -7.41869141 121.75574219 -6.40869141 122.26074219 C-6.40869141 121.60074219 -6.40869141 120.94074219 -6.40869141 120.26074219 C-5.74869141 120.26074219 -5.08869141 120.26074219 -4.40869141 120.26074219 C-4.40869141 120.92074219 -4.40869141 121.58074219 -4.40869141 122.26074219 C-2.04255685 123.44380947 -0.54088405 123.39428827 2.09130859 123.38574219 C2.88537109 123.38832031 3.67943359 123.39089844 4.49755859 123.39355469 C6.65049394 123.39352215 6.65049394 123.39352215 8.59130859 122.26074219 C8.59130859 121.60074219 8.59130859 120.94074219 8.59130859 120.26074219 C9.25130859 120.26074219 9.91130859 120.26074219 10.59130859 120.26074219 C10.92130859 120.92074219 11.25130859 121.58074219 11.59130859 122.26074219 C13.57130859 121.76574219 13.57130859 121.76574219 15.59130859 121.26074219 C15.59130859 120.60074219 15.59130859 119.94074219 15.59130859 119.26074219 C16.47818359 119.32261719 17.36505859 119.38449219 18.27880859 119.44824219 C23.05129985 119.17810117 25.45198539 117.40006539 28.77880859 114.07324219 C29.37693359 113.47511719 29.97505859 112.87699219 30.59130859 112.26074219 C31.25130859 112.26074219 31.91130859 112.26074219 32.59130859 112.26074219 C33.98698169 110.49579725 35.30967382 108.67266002 36.59130859 106.82324219 C40.38387219 101.36446039 40.38387219 101.36446039 42.59130859 100.26074219 C43.5688231 98.19325576 44.45117946 96.08015793 45.27880859 93.94824219 C45.73642578 92.79710937 46.19404297 91.64597656 46.66552734 90.45996094 C47.55161425 87.39791377 47.76799459 86.14897146 46.59130859 83.26074219 C47.25130859 82.93074219 47.91130859 82.60074219 48.59130859 82.26074219 C49.13226669 69.92043574 49.13226669 69.92043574 45.59130859 58.26074219 C45.23147964 56.9343139 44.89161155 55.60190102 44.59130859 54.26074219 C43.93130859 54.26074219 43.27130859 54.26074219 42.59130859 54.26074219 C42.18912109 53.17792969 42.18912109 53.17792969 41.77880859 52.07324219 C38.73741618 44.86994438 34.61182898 40.70218423 28.02880859 36.57324219 C26.60375 35.67025391 26.60375 35.67025391 25.14990234 34.74902344 C21.13395548 32.41302992 17.05521769 31.72547549 12.55224609 30.85839844 C11.90513672 30.66117188 11.25802734 30.46394531 10.59130859 30.26074219 C10.09630859 29.27074219 10.09630859 29.27074219 9.59130859 28.26074219 C9.59130859 28.92074219 9.59130859 29.58074219 9.59130859 30.26074219 C8.60130859 30.26074219 7.61130859 30.26074219 6.59130859 30.26074219 C6.59130859 29.60074219 6.59130859 28.94074219 6.59130859 28.26074219 C1.42714313 27.2279091 -1.52096221 27.43982347 -6.40869141 29.26074219 Z M71.59130859 102.26074219 C72.59130859 104.26074219 72.59130859 104.26074219 72.59130859 104.26074219 Z " fill="#161717" transform="translate(245.40869140625,163.7392578125)"/>
<path d="M0 0 C0.85078125 0.42539062 1.7015625 0.85078125 2.578125 1.2890625 C5.05208333 2.52604167 7.52604167 3.76302083 10 5 C10 5.66 10 6.32 10 7 C10.55945313 7.05671875 11.11890625 7.1134375 11.6953125 7.171875 C15.04916218 8.37698709 16.57023141 10.56469329 18.875 13.25 C21.57419281 16.35615874 24.18698443 19.33997853 27.5 21.8125 C30.44431234 24.3887733 30.88166472 26.32546979 32 30 C33.99208031 31.67929575 33.99208031 31.67929575 36 33 C36.67804688 32.59007812 37.35609375 32.18015625 38.0546875 31.7578125 C50.43706514 24.58906755 65.30745829 22.51682274 79.375 26 C89.25136748 29.60512565 97.96192248 37.53342098 104 46 C105.14453125 49.01953125 105.14453125 49.01953125 106 52 C106.28101563 52.78503906 106.56203125 53.57007813 106.8515625 54.37890625 C108.28276637 58.41952728 109.24059771 61.66924115 109 66 C109.185625 66.886875 109.37125 67.77375 109.5625 68.6875 C110 71 110 71 109 73 C109.0309375 74.6396875 109.0309375 74.6396875 109.0625 76.3125 C109.00165889 79.9021254 108.54469049 81.82480289 107 85 C106.690625 85.680625 106.38125 86.36125 106.0625 87.0625 C104.88162437 89.21586145 103.49195563 91.04898109 102 93 C101.443125 93.9075 100.88625 94.815 100.3125 95.75 C93.37938441 105.49383813 85.18339264 111.15245523 73.47290039 113.61181641 C69.21117881 114.28080025 64.99270286 114.28869845 60.6875 114.25 C59.80771484 114.25773437 58.92792969 114.26546875 58.02148438 114.2734375 C57.17263672 114.27085937 56.32378906 114.26828125 55.44921875 114.265625 C54.68955811 114.26336914 53.92989746 114.26111328 53.1472168 114.25878906 C50.73608175 113.96819177 49.09647242 113.19730482 47 112 C47 116.50629459 50.56118775 121.2186134 53.3125 124.625 C55.66514908 126.54197333 58.26032772 127.72148627 61 129 C61 129.66 61 130.32 61 131 C61.886875 131.268125 62.77375 131.53625 63.6875 131.8125 C68.21764415 133.43651394 71.75894097 135.41777686 75 139 C73.66935766 143.6572482 71.7692567 147.04391901 69 151 C68.11625996 152.36939897 67.24154811 153.74465788 66.375 155.125 C65.97023438 155.76695312 65.56546875 156.40890625 65.1484375 157.0703125 C63.95096747 159.00675975 63.95096747 159.00675975 62.984375 161.1953125 C62 163 62 163 59.875 163.75 C59.25625 163.8325 58.6375 163.915 58 164 C58 163.01 58 162.02 58 161 C57.01 161.33 56.02 161.66 55 162 C52.875 160.875 52.875 160.875 50 159 C48.52362489 158.2031395 47.04419808 157.41191864 45.5625 156.625 C41.59461782 154.43673275 38.3903216 151.99609816 35 149 C34.21625 148.46375 33.4325 147.9275 32.625 147.375 C32.08875 146.92125 31.5525 146.4675 31 146 C31 145.01 31 144.02 31 143 C30.23945313 142.75894531 29.47890625 142.51789063 28.6953125 142.26953125 C25.58101823 140.80265351 24.65787036 139.58588215 22.875 136.6875 C22.37484375 135.88183594 21.8746875 135.07617188 21.359375 134.24609375 C20.91078125 133.50488281 20.4621875 132.76367188 20 132 C19.071875 130.63875 19.071875 130.63875 18.125 129.25 C16.8243955 126.64879101 16.75387786 124.87142497 17 122 C16.01 121.505 16.01 121.505 15 121 C14.62109375 119.1875 14.62109375 119.1875 14.4375 117 C14.37334592 114.21067942 14.37334592 114.21067942 13 112 C12.91128727 108.97022196 12.8848065 105.96332978 12.90234375 102.93359375 C12.9037587 102.02497086 12.90517365 101.11634796 12.90663147 100.18019104 C12.91224807 97.26592779 12.92480335 94.35174019 12.9375 91.4375 C12.94251286 89.46679798 12.94707614 87.49609476 12.95117188 85.52539062 C12.96222289 80.68356441 12.97949862 75.84179505 13 71 C12.34 71 11.68 71 11 71 C11.03480469 70.3709375 11.06960938 69.741875 11.10546875 69.09375 C11.29949144 62.9589372 10.43938161 58.57917972 8 53 C7.505 51.453125 7.505 51.453125 7 49.875 C6.02792989 46.88177621 6.02792989 46.88177621 4.375 43.75 C3 41 3 41 3 39 C2.38125 38.7525 1.7625 38.505 1.125 38.25 C-1 37 -1 37 -1.9375 35 C-3.42520797 32.19960853 -5.03817013 31.9643167 -8 31 C-12.88888889 29.22222222 -12.88888889 29.22222222 -14 27 C-16.19574815 26.54704748 -16.19574815 26.54704748 -18.83984375 26.40234375 C-20.3103418 26.28342773 -20.3103418 26.28342773 -21.81054688 26.16210938 C-22.84244141 26.08798828 -23.87433594 26.01386719 -24.9375 25.9375 C-26.96771922 25.78348337 -28.99768648 25.62609689 -31.02734375 25.46484375 C-31.93218506 25.399021 -32.83702637 25.33319824 -33.76928711 25.26538086 C-36 25 -36 25 -38 24 C-38.31241371 21.45058627 -38.51303421 18.99638487 -38.625 16.4375 C-38.66367187 15.72658203 -38.70234375 15.01566406 -38.7421875 14.28320312 C-38.83671783 12.52257575 -38.91945817 10.76132272 -39 9 C-39.66 9 -40.32 9 -41 9 C-41 -1 -41 -1 -40 -4 C-36.66726265 -4.19925938 -33.33381434 -4.38223367 -30 -4.5625 C-28.59814453 -4.64661133 -28.59814453 -4.64661133 -27.16796875 -4.73242188 C-17.57364939 -5.23562044 -8.68896945 -4.48823606 0 0 Z M9 51 C10 53 10 53 10 53 Z M50 60 C47.91633592 62.95141107 47.04227868 65.38215334 47 69 C47.85928038 72.32504146 49.24029714 75.06519356 51 78 C51.4125 78.78375 51.825 79.5675 52.25 80.375 C54.98856769 82.91795572 58.3722843 84.17586926 62 85 C62.66 84.67 63.32 84.34 64 84 C64.33 84.66 64.66 85.32 65 86 C66.9626391 84.82939038 68.90047921 83.63456592 70.8203125 82.39453125 C73 81 73 81 74.8671875 80.01171875 C76.84830817 78.90313132 76.84830817 78.90313132 79 76 C79.50119149 71.62257216 79.34672225 67.38539442 79 63 C78.01 62.67 77.02 62.34 76 62 C75.67 60.35 75.34 58.7 75 57 C74.443125 56.896875 73.88625 56.79375 73.3125 56.6875 C71 56 71 56 68.5625 54.4375 C61.55747596 50.50785237 55.4286221 55.37246185 50 60 Z M44 111 C45 113 45 113 45 113 Z " fill="#161717" transform="translate(299,61)"/>
<path d="M0 0 C0.72896484 -0.00773437 1.45792969 -0.01546875 2.20898438 -0.0234375 C6.66566339 -0.00739185 10.23969728 0.57883683 14.4375 2.25 C14.4375 2.91 14.4375 3.57 14.4375 4.25 C15.035625 4.04375 15.63375 3.8375 16.25 3.625 C18.4375 3.25 18.4375 3.25 21.4375 5.25 C22.571875 5.86875 23.70625 6.4875 24.875 7.125 C29.00659552 9.47468117 31.89541681 11.62375042 33.4375 16.25 C34.035625 16.4975 34.63375 16.745 35.25 17 C38.68306022 18.96174869 39.68308782 21.74117564 41.4375 25.25 C41.4375 25.91 41.4375 26.57 41.4375 27.25 C42.0975 27.58 42.7575 27.91 43.4375 28.25 C45.66526928 34.19071808 45.64286369 40.73468542 45.6875 47 C45.70127686 48.08087891 45.70127686 48.08087891 45.71533203 49.18359375 C45.68436839 54.54401856 45.35029103 59.33720897 41.4375 63.25 C41.13714844 64.02085938 40.83679688 64.79171875 40.52734375 65.5859375 C39.35607765 68.44903242 37.92638107 70.4639166 36 72.875 C35.10474609 74.00808594 35.10474609 74.00808594 34.19140625 75.1640625 C32.67994136 76.96166217 31.1301397 78.62465179 29.4375 80.25 C30.0975 80.25 30.7575 80.25 31.4375 80.25 C31.4375 80.91 31.4375 81.57 31.4375 82.25 C33.7475 82.25 36.0575 82.25 38.4375 82.25 C38.4375 81.59 38.4375 80.93 38.4375 80.25 C39.489375 80.12625 40.54125 80.0025 41.625 79.875 C47.46489861 78.91763957 51.12337543 76.86242409 55.80859375 73.421875 C59.19471839 70.98581411 62.29109312 69.78159063 66.4375 69.25 C69.91464164 70.40904721 70.17366211 71.01535697 71.9375 74.0625 C73.21209795 76.20579716 74.44056173 78.2540823 75.9375 80.25 C82.4375 88.91666667 82.4375 88.91666667 82.4375 92.25 C81.7775 92.25 81.1175 92.25 80.4375 92.25 C80.4375 93.24 80.4375 94.23 80.4375 95.25 C79.633125 95.53875 78.82875 95.8275 78 96.125 C75.3048532 96.98262568 75.3048532 96.98262568 74.4375 99.25 C73.13205341 99.96974399 71.7917619 100.62694548 70.4375 101.25 C69.633125 101.66378906 68.82875 102.07757813 68 102.50390625 C67.154375 102.93574219 66.30875 103.36757812 65.4375 103.8125 C64.591875 104.24691406 63.74625 104.68132812 62.875 105.12890625 C60.7037872 106.12752496 58.74464778 106.69039394 56.4375 107.25 C55.65375 107.765625 54.87 108.28125 54.0625 108.8125 C50.96172769 110.51054198 48.91971436 110.49294519 45.4375 110.25 C45.1075 110.91 44.7775 111.57 44.4375 112.25 C26.4375 112.25 26.4375 112.25 20.4375 110.25 C19.67695313 110.03601563 18.91640625 109.82203125 18.1328125 109.6015625 C17.28460938 109.36179687 16.43640625 109.12203125 15.5625 108.875 C14.71945313 108.64039063 13.87640625 108.40578125 13.0078125 108.1640625 C10.20230561 107.16635944 7.95476673 105.83451208 5.4375 104.25 C0.63397234 101.56505877 -4.1853886 98.92647577 -9.125 96.5 C-11.5625 95.25 -11.5625 95.25 -13.5625 93.25 C-15.08306618 92.65165446 -16.62862088 92.11493344 -18.1875 91.625 C-19.00476563 91.36460937 -19.82203125 91.10421875 -20.6640625 90.8359375 C-21.29054688 90.64257812 -21.91703125 90.44921875 -22.5625 90.25 C-22.5625 89.59 -22.5625 88.93 -22.5625 88.25 C-23.6453125 88.064375 -23.6453125 88.064375 -24.75 87.875 C-27.5625 87.25 -27.5625 87.25 -29.8515625 86.3125 C-32.78576764 85.16249453 -35.69062417 84.37749244 -38.75 83.625 C-39.79542969 83.36460938 -40.84085937 83.10421875 -41.91796875 82.8359375 C-44.43649663 82.17789346 -44.43649663 82.17789346 -46.5625 82.25 C-46.5625 81.59 -46.5625 80.93 -46.5625 80.25 C-49.8625 80.25 -53.1625 80.25 -56.5625 80.25 C-56.5625 80.91 -56.5625 81.57 -56.5625 82.25 C-57.449375 82.394375 -58.33625 82.53875 -59.25 82.6875 C-60.343125 82.873125 -61.43625 83.05875 -62.5625 83.25 C-63.42875 83.353125 -64.295 83.45625 -65.1875 83.5625 C-68.30337268 84.46446314 -69.35799912 85.8565419 -71.5625 88.25 C-72.85280964 89.29334715 -74.1446354 90.33482052 -75.4375 91.375 C-79.38667748 94.76630111 -81.72368805 98.43766207 -84.140625 103.015625 C-85.67135232 105.42105365 -87.19723264 106.69337105 -89.5625 108.25 C-90.2225 107.59 -90.8825 106.93 -91.5625 106.25 C-93.04387307 105.69724885 -94.54750322 105.20253151 -96.0625 104.75 C-99.02589366 103.86483047 -100.34056313 103.47193687 -102.5625 101.25 C-103.85528942 100.70104483 -105.17132007 100.20526463 -106.5 99.75 C-109.27466611 98.79572231 -111.06055605 97.91796263 -113.5625 96.25 C-114.375 94.25 -114.375 94.25 -114.5625 92.25 C-113.5725 91.26 -113.5725 91.26 -112.5625 90.25 C-111.59239891 88.34962603 -110.65977878 86.42997926 -109.75 84.5 C-105.23432616 75.37072205 -98.84612353 67.8045961 -89.5625 63.25 C-88.94375 62.610625 -88.325 61.97125 -87.6875 61.3125 C-81.95742079 55.75095253 -73.25672556 53.47408134 -65.5625 52.25 C-64.9025 51.899375 -64.2425 51.54875 -63.5625 51.1875 C-60.84796244 49.91506052 -58.51933751 50.11559829 -55.5625 50.25 C-55.5625 50.58 -55.5625 50.91 -55.5625 51.25 C-52.21997276 51.32427838 -49.7589086 51.31546953 -46.5625 50.25 C-46.57410156 49.45335937 -46.58570313 48.65671875 -46.59765625 47.8359375 C-46.69377504 36.54884516 -46.69377504 36.54884516 -45.5625 32.25 C-44.9025 31.59 -44.2425 30.93 -43.5625 30.25 C-43.0984375 28.7959375 -43.0984375 28.7959375 -42.625 27.3125 C-41.56088066 24.2453325 -40.80708253 23.40105825 -38.5625 21.25 C-38.28148437 20.4765625 -38.00046875 19.703125 -37.7109375 18.90625 C-34.00462219 10.33382002 -23.74853692 5.60563393 -15.5625 2.25 C-10.22614077 0.41073902 -5.57113392 -0.05942543 0 0 Z M-9.96875 32.2734375 C-13.60191345 35.04208314 -16.17642871 37.39685782 -17.12890625 41.96875 C-17.18529715 48.05740389 -17.18529715 48.05740389 -14.25 53.25 C-13.363125 53.91 -12.47625 54.57 -11.5625 55.25 C-11.02625 55.848125 -10.49 56.44625 -9.9375 57.0625 C-8.48688937 58.57680994 -8.48688937 58.57680994 -5.5625 58.25 C-5.5625 58.91 -5.5625 59.57 -5.5625 60.25 C-2.2625 60.25 1.0375 60.25 4.4375 60.25 C4.4375 59.59 4.4375 58.93 4.4375 58.25 C5.159375 58.37375 5.88125 58.4975 6.625 58.625 C9.68661591 58.48778006 9.68661591 58.48778006 12.125 55.8125 C15.00999895 52.029341 15.74884515 47.87529375 16.4375 43.25 C15.7775 43.25 15.1175 43.25 14.4375 43.25 C14.7675 41.93 15.0975 40.61 15.4375 39.25 C14.7775 39.25 14.1175 39.25 13.4375 39.25 C13.21835938 38.32703125 12.99921875 37.4040625 12.7734375 36.453125 C11.13340341 32.52087952 9.89093499 31.74841913 6.0625 30 C-0.48948272 27.5212981 -4.05261014 28.91777752 -9.96875 32.2734375 Z M-1.5625 60.25 C-1.5625 60.58 -1.5625 60.91 -1.5625 61.25 C0.0875 61.25 1.7375 61.25 3.4375 61.25 C3.4375 60.92 3.4375 60.59 3.4375 60.25 C1.7875 60.25 0.1375 60.25 -1.5625 60.25 Z " fill="#171717" transform="translate(207.5625,42.75)"/>
<path d="M0 0 C2.33189345 0.26955833 4.66321507 0.44507377 7.00390625 0.62109375 C7.66261719 0.74613281 8.32132813 0.87117187 9 1 C9.495 1.99 9.495 1.99 10 3 C10.74378906 3.14179688 11.48757812 3.28359375 12.25390625 3.4296875 C19.92378945 5.02257932 26.56259937 11.79418878 31 18 C31.495 18.99 31.495 18.99 32 20 C32.495 20.598125 32.99 21.19625 33.5 21.8125 C35.16754558 24.2443373 35.45885856 26.13968096 36 29 C36.66 29.33 37.32 29.66 38 30 C38.38218767 31.65614657 38.71395102 33.32457024 39 35 C39.33 35.66 39.66 36.32 40 37 C42.7710688 34.65408148 43.52059284 32.85223799 44.1875 29.3125 C44.42533203 28.10013672 44.42533203 28.10013672 44.66796875 26.86328125 C44.77753906 26.24839844 44.88710937 25.63351563 45 25 C45.66 25 46.32 25 47 25 C47 17.08 47 9.16 47 1 C51.61675502 -1.30837751 57.98258841 -0.45558657 63.0625 -0.625 C64.38056641 -0.6765625 65.69863281 -0.728125 67.05664062 -0.78125 C68.93319336 -0.84699219 68.93319336 -0.84699219 70.84765625 -0.9140625 C72.00273682 -0.9548291 73.15781738 -0.9955957 74.34790039 -1.03759766 C77 -1 77 -1 78 0 C78.09862603 1.39174359 78.1307898 2.78836143 78.1328125 4.18359375 C78.13410156 5.02857422 78.13539063 5.87355469 78.13671875 6.74414062 C78.13285156 7.63294922 78.12898437 8.52175781 78.125 9.4375 C78.12886719 10.32244141 78.13273438 11.20738281 78.13671875 12.11914062 C78.13478516 13.38854492 78.13478516 13.38854492 78.1328125 14.68359375 C78.13168457 15.46275146 78.13055664 16.24190918 78.12939453 17.04467773 C78 19 78 19 77 21 C76.95834635 22.66614608 76.95834635 24.33385392 77 26 C77 27.66666667 77 29.33333333 77 31 C76.34 31 75.68 31 75 31 C75.04125 32.03125 75.0825 33.0625 75.125 34.125 C74.97127774 38.89039016 74.43772727 42.56227273 71 46 C70.566875 46.928125 70.13375 47.85625 69.6875 48.8125 C67.84275675 52.29701504 65.84571915 54.28363172 63 57 C61.8271993 58.3906834 60.66089115 59.78685959 59.5 61.1875 C56.81877771 64.29818214 54.91259581 65.66148038 51 67 C50.29875 67.7425 49.5975 68.485 48.875 69.25 C45.41549769 72.55908916 41.75002642 74.47361642 37.5234375 76.66796875 C34.03504521 78.5058672 34.03504521 78.5058672 31 81 C29.44326291 81.92641981 27.87956057 82.84115172 26.3125 83.75 C23.16717797 85.61289459 20.26066909 87.47739657 17.5 89.875 C15 92 15 92 13 92 C10.41690001 94.43283655 8.24307721 97.25612319 6 100 C4.79923828 101.44632813 4.79923828 101.44632813 3.57421875 102.921875 C-2.55374972 110.58656123 -2.55374972 110.58656123 -4 120 C-4.02191406 121.27746094 -4.04382813 122.55492187 -4.06640625 123.87109375 C-4.39712395 132.52751518 -4.39712395 132.52751518 -3 141 C-2.34 141.33 -1.68 141.66 -1 142 C0.0703125 143.99609375 0.0703125 143.99609375 1.125 146.4375 C1.47820312 147.24058594 1.83140625 148.04367187 2.1953125 148.87109375 C3 151 3 151 3 153 C2.34 153 1.68 153 1 153 C1 153.99 1 154.98 1 156 C-0.9765625 157.68359375 -0.9765625 157.68359375 -3.625 159.4375 C-4.53636719 160.04722656 -5.44773438 160.65695312 -6.38671875 161.28515625 C-7.24910156 161.85105469 -8.11148438 162.41695312 -9 163 C-10.14593378 163.79152127 -11.29179 164.58315486 -12.4375 165.375 C-15.46459232 167.29461952 -17.10765219 168.14526592 -20.6875 167.5625 C-21.450625 167.376875 -22.21375 167.19125 -23 167 C-23 166.34 -23 165.68 -23 165 C-23.5775 164.46375 -24.155 163.9275 -24.75 163.375 C-28.8897892 159.00522251 -31.01647349 153.90115907 -32 148 C-32.66557534 146.66612156 -33.33233701 145.3328347 -34 144 C-35.8245836 138.01942042 -36.18088206 132.45696371 -36.1875 126.25 C-36.18830566 125.51692627 -36.18911133 124.78385254 -36.18994141 124.02856445 C-36.15086463 120.22639402 -35.89675177 116.69436467 -35 113 C-34.82339844 112.18917969 -34.64679688 111.37835938 -34.46484375 110.54296875 C-34.29082031 109.76566406 -34.11679688 108.98835938 -33.9375 108.1875 C-33.76089844 107.39730469 -33.58429688 106.60710937 -33.40234375 105.79296875 C-33.26957031 105.20128906 -33.13679688 104.60960937 -33 104 C-32.34 104 -31.68 104 -31 104 C-30.896875 103.13375 -30.79375 102.2675 -30.6875 101.375 C-29.58955489 95.98508762 -26.86591291 91.64004947 -24 87 C-26.37328509 84.25198568 -28.6481365 83.28917827 -32 82 C-32.66 81.34 -33.32 80.68 -34 80 C-34.52335937 79.58363281 -35.04671875 79.16726562 -35.5859375 78.73828125 C-40.0289488 75.19745347 -42.42719003 72.05690235 -45 67 C-45.74728359 65.76917997 -46.49724838 64.53998348 -47.25 63.3125 C-49 60 -49 60 -49 56 C-49.66 55.67 -50.32 55.34 -51 55 C-50.67 54.01 -50.34 53.02 -50 52 C-50.33 51.34 -50.66 50.68 -51 50 C-51.07116382 47.62597499 -51.08409085 45.24999323 -51.0625 42.875 C-51.05347656 41.59367187 -51.04445312 40.31234375 -51.03515625 38.9921875 C-51.02355469 38.00476563 -51.01195312 37.01734375 -51 36 C-50.34 36 -49.68 36 -49 36 C-49.103125 35.21625 -49.20625 34.4325 -49.3125 33.625 C-48.76248237 27.24479545 -45.65831915 21.38289154 -41 17 C-39.48289041 15.15497349 -37.98651303 13.29553592 -36.5 11.42578125 C-35 10 -35 10 -32 10 C-31.67 9.34 -31.34 8.68 -31 8 C-27.04315136 5.16139119 -23.58909506 3.52969835 -19 2 C-18.21625 1.67 -17.4325 1.34 -16.625 1 C-11.56124867 -0.92904812 -5.05504637 -2.52752318 0 0 Z M-16.8125 32.3125 C-21.46621593 38.02992243 -22.22849752 42.8023281 -22 50 C-21.67 50.66 -21.34 51.32 -21 52 C-20.34 52 -19.68 52 -19 52 C-19 52.66 -19 53.32 -19 54 C-15.32547562 56.8394052 -13.73113419 58 -9 58 C-9 58.66 -9 59.32 -9 60 C-7.02 60 -5.04 60 -3 60 C-3 59.34 -3 58.68 -3 58 C-2.29875 57.979375 -1.5975 57.95875 -0.875 57.9375 C3.36757751 56.55405081 5.42179573 53.53279256 8 50 C9.26237731 47.47524538 9.09856404 45.68799534 9.0625 42.875 C9.05347656 41.96492188 9.04445313 41.05484375 9.03515625 40.1171875 C9.02355469 39.41851562 9.01195313 38.71984375 9 38 C7.68 37.34 6.36 36.68 5 36 C5 35.34 5 34.68 5 34 C-2.14961779 29.65415389 -9.40633237 26.22298439 -16.8125 32.3125 Z M0 104 C1 106 1 106 1 106 Z " fill="#161717" transform="translate(100,152)"/>
<path d="M0 0 C2.625 0.3125 2.625 0.3125 4.1015625 2.06640625 C4.60429687 2.80761719 5.10703125 3.54882812 5.625 4.3125 C6.12 4.99828125 6.615 5.6840625 7.125 6.390625 C11.67814531 12.98319997 15.24822267 19.0028644 14.625 27.3125 C15.285 27.6425 15.945 27.9725 16.625 28.3125 C16.41875 28.89 16.2125 29.4675 16 30.0625 C15.39371373 32.34007055 15.39371373 32.34007055 16.625 34.3125 C17.90856111 36.87962223 17.31218653 37.57323233 16.625 40.3125 C16.55733914 42.35315157 16.53992649 44.39585183 16.5625 46.4375 C16.57152344 47.49195313 16.58054687 48.54640625 16.58984375 49.6328125 C16.60144531 50.51710937 16.61304688 51.40140625 16.625 52.3125 C16.625 55.18686732 15.52938073 57.59935782 14.625 60.3125 C13.95311503 62.64433607 13.28584583 64.97751142 12.625 67.3125 C11.965 67.3125 11.305 67.3125 10.625 67.3125 C10.625 68.9625 10.625 70.6125 10.625 72.3125 C9.965 72.3125 9.305 72.3125 8.625 72.3125 C8.480625 72.93125 8.33625 73.55 8.1875 74.1875 C7.625 76.3125 7.625 76.3125 6.625 78.3125 C6.56598078 80.33327346 6.56598078 80.33327346 7.625 82.3125 C9.59800116 83.36476728 11.60176387 84.36038888 13.625 85.3125 C15.8125 87.3125 15.8125 87.3125 17.625 89.3125 C19.60123067 91.36777989 21.20165866 92.6969391 23.625 94.3125 C23.625 95.3025 23.625 96.2925 23.625 97.3125 C24.285 97.3125 24.945 97.3125 25.625 97.3125 C26.0271875 98.3953125 26.0271875 98.3953125 26.4375 99.5 C27.5464487 102.33368059 27.5464487 102.33368059 29.1875 104.8125 C32.46363217 110.51012116 31.87661238 117.17335914 31.9375 123.5625 C31.96650391 124.56152344 31.99550781 125.56054688 32.02539062 126.58984375 C32.11566402 137.21432843 28.59927559 143.89931774 21.5 151.625 C19.625 153.3125 19.625 153.3125 17.625 153.3125 C17.46 154.034375 17.295 154.75625 17.125 155.5 C14.98258482 159.51702846 11.7063521 161.41325695 7.625 163.3125 C6.635 163.3125 5.645 163.3125 4.625 163.3125 C3.965 163.9725 3.305 164.6325 2.625 165.3125 C-2.39840576 167.08952979 -7.08593985 167.65033075 -12.375 167.625 C-13.38433594 167.64916992 -13.38433594 167.64916992 -14.4140625 167.67382812 C-19.55063635 167.67878621 -22.84265008 166.47441994 -27.375 164.3125 C-28.57125 164.003125 -29.7675 163.69375 -31 163.375 C-34.62780407 162.23291353 -36.56029136 160.82291581 -39.375 158.3125 C-41.35948173 156.7816141 -43.13529682 155.43235159 -45.375 154.3125 C-45.375 153.3225 -45.375 152.3325 -45.375 151.3125 C-45.973125 151.10625 -46.57125 150.9 -47.1875 150.6875 C-50.21772593 148.78278656 -50.9189573 146.54111643 -52.375 143.3125 C-52.890625 142.466875 -53.40625 141.62125 -53.9375 140.75 C-56.30938792 136.7281031 -57.375 134.02994479 -57.375 129.3125 C-57.99375 130.1375 -58.6125 130.9625 -59.25 131.8125 C-59.95125 132.6375 -60.6525 133.4625 -61.375 134.3125 C-62.035 134.3125 -62.695 134.3125 -63.375 134.3125 C-63.33375 135.34375 -63.2925 136.375 -63.25 137.4375 C-63.37285663 141.24605555 -64.11587861 143.75733373 -65.375 147.3125 C-66.41177331 152.6000439 -66.42939125 157.69230159 -66.3125 163.0546875 C-66.375 165.3125 -66.375 165.3125 -67.375 166.3125 C-69.00756758 166.46964654 -70.64635338 166.56335414 -72.28515625 166.62890625 C-73.76918945 166.69174805 -73.76918945 166.69174805 -75.28320312 166.75585938 C-76.32412109 166.79517578 -77.36503906 166.83449219 -78.4375 166.875 C-79.48228516 166.91818359 -80.52707031 166.96136719 -81.60351562 167.00585938 C-84.19386884 167.11231225 -86.78432186 167.2143276 -89.375 167.3125 C-89.375 167.9725 -89.375 168.6325 -89.375 169.3125 C-91.3125 169 -91.3125 169 -93.375 168.3125 C-93.705 167.3225 -94.035 166.3325 -94.375 165.3125 C-95.035 165.3125 -95.695 165.3125 -96.375 165.3125 C-96.40201408 163.20840361 -96.42140223 161.10420822 -96.4375 159 C-96.44910156 157.82824219 -96.46070313 156.65648437 -96.47265625 155.44921875 C-96.375 152.3125 -96.375 152.3125 -95.375 149.3125 C-95.395625 148.219375 -95.41625 147.12625 -95.4375 146 C-95.37499119 142.31197994 -94.57723091 139.75889526 -93.375 136.3125 C-93.705 135.6525 -94.035 134.9925 -94.375 134.3125 C-92.9705471 128.79500646 -91.3300919 124.15885072 -88.375 119.3125 C-88.08625 118.673125 -87.7975 118.03375 -87.5 117.375 C-83.54811682 110.12988083 -77.22141222 104.67131123 -70.23828125 100.515625 C-67.97519589 99.05434556 -66.23725924 97.24638459 -64.375 95.3125 C-63.715 95.3125 -63.055 95.3125 -62.375 95.3125 C-61.37056548 94.31695428 -60.37150963 93.31597823 -59.375 92.3125 C-57.79798628 91.27020522 -56.19068235 90.27290249 -54.5625 89.3125 C-53.67304688 88.7865625 -52.78359375 88.260625 -51.8671875 87.71875 C-49.375 86.3125 -49.375 86.3125 -46.1875 84.8125 C-42.98386929 83.10389695 -40.61599624 81.00226886 -37.98828125 78.51953125 C-36.375 77.3125 -36.375 77.3125 -33.375 77.3125 C-33.11460937 76.71308594 -32.85421875 76.11367187 -32.5859375 75.49609375 C-31.29215749 73.16311626 -30.08031236 72.01472219 -28 70.375 C-21.57956182 65.05786693 -16.84199507 58.62547204 -15.375 50.3125 C-14.715 49.9825 -14.055 49.6525 -13.375 49.3125 C-13.375 44.0325 -13.375 38.7525 -13.375 33.3125 C-14.035 33.3125 -14.695 33.3125 -15.375 33.3125 C-15.7875 32.178125 -16.2 31.04375 -16.625 29.875 C-18.34847498 25.2653229 -20.33371274 20.78882536 -22.375 16.3125 C-18.9368814 11.23006381 -14.46545926 8.51825635 -9.375 5.3125 C-1.59108668 0.20935351 -1.59108668 0.20935351 0 0 Z M-14.375 106.9375 C-15.365 107.618125 -15.365 107.618125 -16.375 108.3125 C-17.385625 108.951875 -18.39625 109.59125 -19.4375 110.25 C-24.01805332 113.44477547 -24.01805332 113.44477547 -26.375 118.3125 C-27.13661516 125.54784405 -24.94943481 130.08277075 -21.375 136.3125 C-20.385 136.3125 -19.395 136.3125 -18.375 136.3125 C-16.78995727 136.72261595 -15.20679552 137.14003287 -13.625 137.5625 C-9.7643984 138.3889631 -7.68690352 138.4435294 -4.25 136.4375 C-3.30125 135.73625 -2.3525 135.035 -1.375 134.3125 C-1.375 133.6525 -1.375 132.9925 -1.375 132.3125 C-0.715 132.3125 -0.055 132.3125 0.625 132.3125 C3.99524815 126.69541976 4.16563673 122.67086376 3.37109375 116.265625 C1.51787955 111.41427893 -5.21803455 108.83640888 -9.6875 106.8125 C-12.28347519 106.11272813 -12.28347519 106.11272813 -14.375 106.9375 Z M3.625 121.3125 C4.625 124.3125 4.625 124.3125 4.625 124.3125 Z M-56.375 131.3125 C-55.375 133.3125 -55.375 133.3125 -55.375 133.3125 Z " fill="#161717" transform="translate(412.375,159.6875)"/>
<path d="M0 0 C5.05472708 2.01146872 9.5463537 4.90181127 14 8 C14.92425781 8.59167969 15.84851563 9.18335938 16.80078125 9.79296875 C20.11764531 12.08115946 23.10900224 14.58466275 26.0625 17.3125 C26.85019775 18.03880615 26.85019775 18.03880615 27.65380859 18.77978516 C35.05094034 25.72804497 38.98227619 31.93237048 39.65625 42.109375 C39.7696875 42.73328125 39.883125 43.3571875 40 44 C40.66 44.33 41.32 44.66 42 45 C42 46.32 42 47.64 42 49 C41.34 49 40.68 49 40 49 C40.32073486 49.51876709 40.64146973 50.03753418 40.97192383 50.57202148 C42.31251676 53.73806203 42.34256006 56.41297343 42.44921875 59.84765625 C42.47095657 60.50076279 42.4926944 61.15386932 42.51509094 61.82676697 C42.55886574 63.20249207 42.59809738 64.57836836 42.63305664 65.9543457 C42.6874164 68.05926298 42.7576155 70.16321426 42.83007812 72.26757812 C43.14285318 82.57144046 43.14285318 82.57144046 42 86 C42.13448849 90.33906692 42.13448849 90.33906692 44 94 C44 95.66666667 44 97.33333333 44 99 C44.31478446 100.33783393 44.64587656 101.67203709 45 103 C45 103.99 45 104.98 45 106 C45.66 106.66 46.32 107.32 47 108 C49.83363803 114.12065814 49.83363803 114.12065814 50.4375 117.3125 C50.85041187 119.19647975 50.85041187 119.19647975 52.875 120 C53.57625 120.33 54.2775 120.66 55 121 C56 122.33333333 57 123.66666667 58 125 C59.31647119 125.69937532 60.65022151 126.36729133 62 127 C62.680625 127.7734375 62.680625 127.7734375 63.375 128.5625 C65.69406364 130.61397937 67.98577731 130.56042586 71 131 C72.485 131.99 72.485 131.99 74 133 C74.99 132.67 75.98 132.34 77 132 C77.66 132.66 78.32 133.32 79 134 C79 133.67 79 133.34 79 133 C80.79158489 132.97303635 82.58328473 132.95362083 84.375 132.9375 C85.37273437 132.92589844 86.37046875 132.91429687 87.3984375 132.90234375 C90 133 90 133 92 134 C95.85645229 142.30620493 96.93127578 154.20617266 94 163 C90.20558189 165.0647104 86.95190828 165.21872326 82.6875 165.125 C81.61886719 165.10695313 80.55023438 165.08890625 79.44921875 165.0703125 C78.64097656 165.04710937 77.83273438 165.02390625 77 165 C77 164.34 77 163.68 77 163 C74.69 163.33 72.38 163.66 70 164 C69.67 163.34 69.34 162.68 69 162 C68.13375 162.04125 67.2675 162.0825 66.375 162.125 C61.83168198 161.95672896 58.26737303 161.26737303 55 158 C54.2575 157.71125 53.515 157.4225 52.75 157.125 C49.51846391 155.80300796 46.88949355 153.94726739 44 152 C43.01 151.67 42.02 151.34 41 151 C37.56865555 147.84687266 34.54644563 144.38431698 31.546875 140.828125 C30.50688173 139.59904205 29.45449559 138.38034936 28.390625 137.171875 C26.07033281 134.52995815 24.07189187 132.12514511 22.3125 129.0625 C21.879375 128.381875 21.44625 127.70125 21 127 C17.6333939 127 16.88453864 127.53441742 14.1875 129.375 C6.40652921 134.38814815 -4.04899715 137.12718965 -13.3125 135.625 C-14.199375 135.41875 -15.08625 135.2125 -16 135 C-16.96679688 134.78150391 -16.96679688 134.78150391 -17.953125 134.55859375 C-23.5215667 133.24897876 -27.44230935 131.48529285 -32 128 C-32.886875 127.484375 -33.77375 126.96875 -34.6875 126.4375 C-41.43560495 121.96752767 -46.73045004 115.73710213 -49 108 C-49.34804687 107.30519531 -49.69609375 106.61039062 -50.0546875 105.89453125 C-54.0370027 97.91344499 -53.60859782 89.28613425 -51 81 C-50.855625 80.154375 -50.71125 79.30875 -50.5625 78.4375 C-49.84846854 75.34336366 -48.49222642 72.78981462 -47 70 C-46.34 70 -45.68 70 -45 70 C-44.92652344 69.43796875 -44.85304688 68.8759375 -44.77734375 68.296875 C-43.71592977 65.16063671 -41.91682334 63.55535342 -39.5625 61.25 C-38.35787109 60.05117188 -38.35787109 60.05117188 -37.12890625 58.828125 C-35 57 -35 57 -33 57 C-32.67 56.34 -32.34 55.68 -32 55 C-28.35556966 52.73082639 -25.23297472 50.81928543 -21 50 C-20.071875 49.649375 -19.14375 49.29875 -18.1875 48.9375 C-14.63588465 47.89290725 -11.6863705 47.93297508 -8 48 C-6.32442621 47.71479595 -4.65182755 47.40044304 -3 47 C-3 47.66 -3 48.32 -3 49 C-1.4221875 48.7215625 -1.4221875 48.7215625 0.1875 48.4375 C3.57119882 48.04920669 5.76425888 48.11752515 9 49 C9 44.6671167 6.70678489 42.17414344 4 39 C0.26654688 35.3256907 -3.29933918 32.31612602 -8 30 C-8.66 29.34 -9.32 28.68 -10 28 C-11.64991582 27.29289322 -13.31562256 26.62056011 -15 26 C-15 25.34 -15 24.68 -15 24 C-15.66 24 -16.32 24 -17 24 C-17.495 22.515 -17.495 22.515 -18 21 C-17.34 20.01 -16.68 19.02 -16 18 C-15.34 18 -14.68 18 -14 18 C-14.10441406 16.95585937 -14.10441406 16.95585937 -14.2109375 15.890625 C-13.93710407 12.13809286 -12.56097413 9.9581857 -10.625 6.75 C-9.99851563 5.69296875 -9.37203125 4.6359375 -8.7265625 3.546875 C-6.19630532 -0.18554057 -4.37125586 -0.47513651 0 0 Z M-22 85 C-21.67 85.66 -21.34 86.32 -21 87 C-21.99 87.495 -21.99 87.495 -23 88 C-23 90.97 -23 93.94 -23 97 C-22.34 97 -21.68 97 -21 97 C-21.33 97.99 -21.66 98.98 -22 100 C-18.37 102.64 -14.74 105.28 -11 108 C-10.67 107.34 -10.34 106.68 -10 106 C-8.35 106 -6.7 106 -5 106 C-4.67 106.66 -4.34 107.32 -4 108 C-3.071875 107.360625 -2.14375 106.72125 -1.1875 106.0625 C2 104 2 104 5 103 C5.33 100.69 5.66 98.38 6 96 C6.99 95.67 7.98 95.34 9 95 C9 93.02 9 91.04 9 89 C8.01 88.67 7.02 88.34 6 88 C5.9175 86.88625 5.835 85.7725 5.75 84.625 C5.41970314 81.01315529 5.41970314 81.01315529 3.25 79.6875 C2.5075 79.460625 1.765 79.23375 1 79 C0.2575 78.62875 -0.485 78.2575 -1.25 77.875 C-10.42377383 74.95607196 -15.73718886 78.25543415 -22 85 Z " fill="#161617" transform="translate(139,256)"/>
<path d="M0 0 C0.66 0 1.32 0 2 0 C2 0.66 2 1.32 2 2 C2.99 1.34 3.98 0.68 5 0 C7.15625 -0.1953125 7.15625 -0.1953125 9.5 -0.125 C10.66015625 -0.09792969 10.66015625 -0.09792969 11.84375 -0.0703125 C12.91109375 -0.03550781 12.91109375 -0.03550781 14 0 C14.99 0 15.98 0 17 0 C17.66 0 18.32 0 19 0 C19.495 0.99 19.495 0.99 20 2 C22.32495277 2.38749213 24.6599583 2.71758117 27 3 C30 4 30 4 32 6 C33.48132505 6.78624176 34.98497181 7.53084105 36.5 8.25 C41.80616948 10.85667509 47.20437224 13.52061901 52 17 C52 17.66 52 18.32 52 19 C53.051875 19.103125 54.10375 19.20625 55.1875 19.3125 C58.95647488 19.99215121 60.857872 20.93281053 64 23 C66.64341376 24.13289161 69.2710718 25.09035727 72 26 C72.495 26.99 72.495 26.99 73 28 C74.62421714 28.27070286 76.25144535 28.52967368 77.88671875 28.72265625 C80.22261658 29.02921585 82.50617359 29.45686009 84.8125 29.9375 C85.56144531 30.09089844 86.31039062 30.24429687 87.08203125 30.40234375 C89 31 89 31 91 33 C93.66949409 33.24315656 93.66949409 33.24315656 96.625 33.125 C97.62789062 33.10695313 98.63078125 33.08890625 99.6640625 33.0703125 C100.82035156 33.03550781 100.82035156 33.03550781 102 33 C102.33 32.34 102.66 31.68 103 31 C104.32711192 30.64270064 105.66262906 30.31674575 107 30 C116.91819917 26.30498462 123.22084447 21.35230032 129.203125 12.5703125 C131.2355125 9.66311472 133.38168122 7.3728514 136 5 C137.46067199 5.45082469 138.91848032 5.91093537 140.375 6.375 C141.18710937 6.63023437 141.99921875 6.88546875 142.8359375 7.1484375 C145 8 145 8 147 10 C147.99 10.33 148.98 10.66 150 11 C154.86956522 12.73913043 154.86956522 12.73913043 156 15 C156.99 15 157.98 15 159 15 C159 15.66 159 16.32 159 17 C159.66 17 160.32 17 161 17 C159.20863672 23.26977147 155.85982405 27.85356793 152 33 C151.443125 33.9075 150.88625 34.815 150.3125 35.75 C142.80116063 46.30647695 132.60939842 52.67666609 121 58 C120.32066406 58.32226562 119.64132812 58.64453125 118.94140625 58.9765625 C113.62366002 61.26629629 108.7330572 61.31719784 103 61 C103 61.66 103 62.32 103 63 C102.01 63 101.02 63 100 63 C100 62.34 100 61.68 100 61 C98.72125 61.185625 97.4425 61.37125 96.125 61.5625 C92.25 62.125 92.25 62.125 90 61 C89.92652344 62.04800781 89.92652344 62.04800781 89.8515625 63.1171875 C89.77679688 64.02726562 89.70203125 64.93734375 89.625 65.875 C89.55539062 66.77992188 89.48578125 67.68484375 89.4140625 68.6171875 C89 71 89 71 87 73 C87.00902344 73.91265625 87.01804687 74.8253125 87.02734375 75.765625 C86.95163174 84.72127442 80.14918681 92.68832905 74.234375 98.87109375 C69.61644857 103.27104113 65.24752395 106.29612983 59 108 C56.10736094 108.87209412 56.10736094 108.87209412 54 110.0625 C48.47410452 112.65276351 39.19156062 111 33 111 C32.67 110.34 32.34 109.68 32 109 C29.97521522 108.51013271 27.94968321 108.02278221 25.91796875 107.5625 C23.55704705 106.87009119 22.64836593 105.79170209 21 104 C19.96875 103.649375 18.9375 103.29875 17.875 102.9375 C12.31433673 100.70849212 8.42116162 95.7589682 5 91 C3.80078125 87.86328125 3.80078125 87.86328125 3 85 C2.2236068 81.9254644 2.2236068 81.9254644 0 80 C-0.37890625 78.08984375 -0.37890625 78.08984375 -0.5625 75.9375 C-0.55913448 72.23263383 -0.55913448 72.23263383 -2 71 C-3.00307257 56.72096687 2.21399218 46.27985324 11.31640625 35.63671875 C13 34 13 34 16 33 C15.67 32.01 15.34 31.02 15 30 C11.7 30 8.4 30 5 30 C5 30.66 5 31.32 5 32 C4.29875 32.12375 3.5975 32.2475 2.875 32.375 C-1.68280176 33.36582647 -5.27790638 34.51860425 -9.1875 37.125 C-12 39 -12 39 -15 39 C-17.18777466 40.9375006 -17.18777466 40.9375006 -19 43 C-24.28830378 40.88467849 -25.65708073 39.07632509 -28 34 C-29.01204325 32.78715452 -30.05588656 31.60035087 -31.125 30.4375 C-33.62520978 27.66017337 -34.55581157 25.77560162 -35 22 C-35.66 21.67 -36.32 21.34 -37 21 C-34.78603647 16.44907497 -32.60523633 14.97367271 -28 13 C-25.30432247 11.71915123 -22.85461563 10.28159427 -20.375 8.625 C-14.38548268 4.85216386 -8.20057864 1.65467918 -1 2 C-0.67 1.34 -0.34 0.68 0 0 Z M36 52 C36 52.66 36 53.32 36 54 C35.01 54.33 34.02 54.66 33 55 C29.4024441 60.39633385 27.79986451 64.59769675 28.1875 71.1875 C29.15232921 74.52729341 30.13483106 75.17671068 33 77 C33.66 77.99 34.32 78.98 35 80 C36.81115956 81.81115956 39.61278227 81.38199448 42.0625 81.5625 C43.16722656 81.64628906 44.27195312 81.73007812 45.41015625 81.81640625 C46.26480469 81.87699219 47.11945313 81.93757813 48 82 C48 81.34 48 80.68 48 80 C48.99 80.33 49.98 80.66 51 81 C57.27681691 75.13254071 58.60690251 69.51711221 59 61 C58.67 60.34 58.34 59.68 58 59 C57.34 59 56.68 59 56 59 C55.731875 58.360625 55.46375 57.72125 55.1875 57.0625 C54.11332248 54.66868314 54.11332248 54.66868314 51 54 C50.67 53.01 50.34 52.02 50 51 C48.04174127 50.97305149 46.08337774 50.95362782 44.125 50.9375 C43.03445313 50.92589844 41.94390625 50.91429687 40.8203125 50.90234375 C38.04822454 50.80255697 38.04822454 50.80255697 36 52 Z M59 62 C59 64.64 59 67.28 59 70 C59.33 70 59.66 70 60 70 C60 67.36 60 64.72 60 62 C59.67 62 59.34 62 59 62 Z " fill="#161616" transform="translate(240,323)"/>
<path d="M0 0 C3.26845713 4.90268569 4.27944109 9.13173703 4 15 C3.01 15.495 3.01 15.495 2 16 C1.67 14.35 1.34 12.7 1 11 C0.67 11 0.34 11 0 11 C0 7.37 0 3.74 0 0 Z " fill="#090909" transform="translate(230,390)"/>
<path d="M0 0 C0.99 0 1.98 0 3 0 C2.67 3.3 2.34 6.6 2 10 C1.34 9.67 0.68 9.34 0 9 C0 6.03 0 3.06 0 0 Z " fill="#000000" transform="translate(327,384)"/>
<path d="M0 0 C0 2.97 0 5.94 0 9 C-2.5654594 6.4345406 -2.54046087 4.52313332 -3 1 C-1 0 -1 0 0 0 Z " fill="#070808" transform="translate(234,407)"/>
<path d="M0 0 C5.94 0 11.88 0 18 0 C18 0.33 18 0.66 18 1 C12.06 1 6.12 1 0 1 C0 0.67 0 0.34 0 0 Z " fill="#000000" transform="translate(261,55)"/>
<path d="M0 0 C0 3.93169105 -1.39419615 5.16427228 -4 8 C-4.66 8 -5.32 8 -6 8 C-5.65120368 4.74456771 -4.97866739 3.98126893 -2.4375 1.75 C-1.633125 1.1725 -0.82875 0.595 0 0 Z " fill="#040405" transform="translate(355,286)"/>
<path d="M0 0 C0.33 0 0.66 0 1 0 C1 5.61 1 11.22 1 17 C0.67 17 0.34 17 0 17 C0 11.39 0 5.78 0 0 Z " fill="#000000" transform="translate(311,138)"/>
<path d="M0 0 C4.95 0 9.9 0 15 0 C15 0.33 15 0.66 15 1 C10.05 1 5.1 1 0 1 C0 0.67 0 0.34 0 0 Z " fill="#000000" transform="translate(354,175)"/>
<path d="M0 0 C4.62 0 9.24 0 14 0 C14 0.33 14 0.66 14 1 C9.38 1 4.76 1 0 1 C0 0.67 0 0.34 0 0 Z " fill="#000000" transform="translate(331,327)"/>
<path d="M0 0 C4.62 0 9.24 0 14 0 C14 0.33 14 0.66 14 1 C9.38 1 4.76 1 0 1 C0 0.67 0 0.34 0 0 Z " fill="#000000" transform="translate(155,150)"/>
<path d="M0 0 C0.33 0 0.66 0 1 0 C1 4.29 1 8.58 1 13 C0.67 13 0.34 13 0 13 C0 8.71 0 4.42 0 0 Z " fill="#000000" transform="translate(253,81)"/>
<path d="M0 0 C3.3 0 6.6 0 10 0 C10 0.33 10 0.66 10 1 C6.7 1 3.4 1 0 1 C0 0.67 0 0.34 0 0 Z " fill="#000000" transform="translate(331,355)"/>
<path d="M0 0 C0.33 0 0.66 0 1 0 C1 2.97 1 5.94 1 9 C0.67 9 0.34 9 0 9 C0 6.03 0 3.06 0 0 Z " fill="#000000" transform="translate(445,278)"/>
<path d="M0 0 C2.97 0 5.94 0 9 0 C9 0.33 9 0.66 9 1 C6.03 1 3.06 1 0 1 C0 0.67 0 0.34 0 0 Z " fill="#000000" transform="translate(358,85)"/>
<path d="M0 0 C2.64 0 5.28 0 8 0 C8 0.33 8 0.66 8 1 C5.36 1 2.72 1 0 1 C0 0.67 0 0.34 0 0 Z " fill="#000000" transform="translate(244,285)"/>
<path d="M0 0 C0.33 0 0.66 0 1 0 C1 2.64 1 5.28 1 8 C0.67 8 0.34 8 0 8 C0 5.36 0 2.72 0 0 Z " fill="#000000" transform="translate(259,73)"/>
<path d="M0 0 C0.33 0 0.66 0 1 0 C1 2.31 1 4.62 1 7 C0.67 7 0.34 7 0 7 C0 4.69 0 2.38 0 0 Z " fill="#000000" transform="translate(323,244)"/>
<path d="M0 0 C1.98 0 3.96 0 6 0 C6 0.33 6 0.66 6 1 C4.02 1 2.04 1 0 1 C0 0.67 0 0.34 0 0 Z " fill="#000000" transform="translate(238,163)"/>
<path d="M0 0 C0.33 0 0.66 0 1 0 C1 1.65 1 3.3 1 5 C0.67 5 0.34 5 0 5 C0 3.35 0 1.7 0 0 Z " fill="#000000" transform="translate(146,346)"/>
<path d="M0 0 C0.33 0 0.66 0 1 0 C1 1.65 1 3.3 1 5 C0.67 5 0.34 5 0 5 C0 3.35 0 1.7 0 0 Z " fill="#000000" transform="translate(323,228)"/>
<path d="M0 0 C1.65 0 3.3 0 5 0 C5 0.33 5 0.66 5 1 C3.35 1 1.7 1 0 1 C0 0.67 0 0.34 0 0 Z " fill="#000000" transform="translate(252,163)"/>
<path d="M0 0 C1.65 0 3.3 0 5 0 C5 0.33 5 0.66 5 1 C3.35 1 1.7 1 0 1 C0 0.67 0 0.34 0 0 Z " fill="#000000" transform="translate(205,42)"/>
<path d="M0 0 C1 4 1 4 1 4 Z " fill="#000000" transform="translate(444,288)"/>
<path d="M0 0 C1 4 1 4 1 4 Z " fill="#000000" transform="translate(201,230)"/>
<path d="M0 0 C4 1 4 1 4 1 Z " fill="#000000" transform="translate(245,192)"/>
<path d="M0 0 C1 4 1 4 1 4 Z " fill="#000000" transform="translate(146,171)"/>
<path d="M0 0 C3 1 3 1 3 1 Z " fill="#000000" transform="translate(205,418)"/>
<path d="M0 0 C3 1 3 1 3 1 Z " fill="#000000" transform="translate(346,384)"/>
<path d="M0 0 C3 1 3 1 3 1 Z " fill="#000000" transform="translate(259,314)"/>
<path d="M0 0 C3 1 3 1 3 1 Z " fill="#000000" transform="translate(233,314)"/>
<path d="" fill="#000000" transform="translate(0,0)"/>
<path d="" fill="#000000" transform="translate(0,0)"/>
<path d="" fill="#000000" transform="translate(0,0)"/>
<path d="" fill="#000000" transform="translate(0,0)"/>
<path d="" fill="#000000" transform="translate(0,0)"/>
<path d="M0 0 C3 1 3 1 3 1 Z " fill="#000000" transform="translate(253,153)"/>
<path d="" fill="#000000" transform="translate(0,0)"/>
<path d="M0 0 C2 1 2 1 2 1 Z " fill="#000000" transform="translate(270,432)"/>
<path d="M0 0 C2 1 2 1 2 1 Z " fill="#000000" transform="translate(297,431)"/>
<path d="" fill="#000000" transform="translate(0,0)"/>
<path d="" fill="#000000" transform="translate(0,0)"/>
<path d="M0 0 C2 1 2 1 2 1 Z " fill="#000000" transform="translate(249,353)"/>
<path d="M0 0 C2 1 2 1 2 1 Z " fill="#000000" transform="translate(387,333)"/>
<path d="M0 0 C2 1 2 1 2 1 Z " fill="#000000" transform="translate(260,324)"/>
<path d="M0 0 C2 1 2 1 2 1 Z " fill="#000000" transform="translate(237,324)"/>
<path d="" fill="#000000" transform="translate(0,0)"/>
<path d="" fill="#000000" transform="translate(0,0)"/>
<path d="" fill="#000000" transform="translate(0,0)"/>
<path d="" fill="#000000" transform="translate(0,0)"/>
<path d="M0 0 C2 1 2 1 2 1 Z " fill="#000000" transform="translate(136,255)"/>
<path d="" fill="#000000" transform="translate(0,0)"/>
<path d="" fill="#000000" transform="translate(0,0)"/>
<path d="" fill="#000000" transform="translate(0,0)"/>
<path d="" fill="#000000" transform="translate(0,0)"/>
<path d="" fill="#000000" transform="translate(0,0)"/>
<path d="" fill="#000000" transform="translate(0,0)"/>
<path d="" fill="#000000" transform="translate(0,0)"/>
<path d="M0 0 C2 1 2 1 2 1 Z " fill="#000000" transform="translate(274,168)"/>
<path d="M0 0 C2 1 2 1 2 1 Z " fill="#000000" transform="translate(229,153)"/>
<path d="M0 0 C2 1 2 1 2 1 Z " fill="#000000" transform="translate(265,149)"/>
<path d="M0 0 C2 1 2 1 2 1 Z " fill="#000000" transform="translate(183,131)"/>
<path d="M0 0 C2 1 2 1 2 1 Z " fill="#000000" transform="translate(283,88)"/>
<path d="" fill="#000000" transform="translate(0,0)"/>
<path d="" fill="#000000" transform="translate(0,0)"/>
<path d="" fill="#000000" transform="translate(0,0)"/>
<path d="" fill="#000000" transform="translate(0,0)"/>
<path d="" fill="#000000" transform="translate(0,0)"/>
<path d="" fill="#000000" transform="translate(0,0)"/>
<path d="" fill="#000000" transform="translate(0,0)"/>
<path d="" fill="#000000" transform="translate(0,0)"/>
<path d="" fill="#000000" transform="translate(0,0)"/>
<path d="" fill="#000000" transform="translate(0,0)"/>
<path d="" fill="#000000" transform="translate(0,0)"/>
<path d="" fill="#000000" transform="translate(0,0)"/>
<path d="" fill="#000000" transform="translate(0,0)"/>
<path d="" fill="#000000" transform="translate(0,0)"/>
<path d="" fill="#000000" transform="translate(0,0)"/>
<path d="" fill="#000000" transform="translate(0,0)"/>
<path d="" fill="#000000" transform="translate(0,0)"/>
<path d="" fill="#000000" transform="translate(0,0)"/>
<path d="" fill="#000000" transform="translate(0,0)"/>
<path d="" fill="#000000" transform="translate(0,0)"/>
<path d="" fill="#000000" transform="translate(0,0)"/>
<path d="" fill="#000000" transform="translate(0,0)"/>
<path d="" fill="#000000" transform="translate(0,0)"/>
<path d="" fill="#000000" transform="translate(0,0)"/>
<path d="" fill="#000000" transform="translate(0,0)"/>
<path d="" fill="#000000" transform="translate(0,0)"/>
<path d="" fill="#000000" transform="translate(0,0)"/>
<path d="" fill="#000000" transform="translate(0,0)"/>
<path d="" fill="#000000" transform="translate(0,0)"/>
<path d="" fill="#000000" transform="translate(0,0)"/>
<path d="" fill="#000000" transform="translate(0,0)"/>
<path d="" fill="#000000" transform="translate(0,0)"/>
<path d="" fill="#000000" transform="translate(0,0)"/>
<path d="" fill="#000000" transform="translate(0,0)"/>
<path d="" fill="#000000" transform="translate(0,0)"/>
<path d="" fill="#000000" transform="translate(0,0)"/>
<path d="" fill="#000000" transform="translate(0,0)"/>
<path d="" fill="#000000" transform="translate(0,0)"/>
<path d="" fill="#000000" transform="translate(0,0)"/>
<path d="" fill="#000000" transform="translate(0,0)"/>
<path d="" fill="#000000" transform="translate(0,0)"/>
<path d="" fill="#000000" transform="translate(0,0)"/>
<path d="" fill="#000000" transform="translate(0,0)"/>
<path d="" fill="#000000" transform="translate(0,0)"/>
<path d="" fill="#000000" transform="translate(0,0)"/>
<path d="" fill="#000000" transform="translate(0,0)"/>
<path d="" fill="#000000" transform="translate(0,0)"/>
<path d="" fill="#000000" transform="translate(0,0)"/>
<path d="" fill="#000000" transform="translate(0,0)"/>
<path d="" fill="#000000" transform="translate(0,0)"/>
<path d="" fill="#000000" transform="translate(0,0)"/>
<path d="" fill="#000000" transform="translate(0,0)"/>
<path d="" fill="#000000" transform="translate(0,0)"/>
<path d="" fill="#000000" transform="translate(0,0)"/>
<path d="" fill="#000000" transform="translate(0,0)"/>
<path d="" fill="#000000" transform="translate(0,0)"/>
<path d="" fill="#000000" transform="translate(0,0)"/>
<path d="" fill="#000000" transform="translate(0,0)"/>
<path d="" fill="#000000" transform="translate(0,0)"/>
<path d="" fill="#000000" transform="translate(0,0)"/>
<path d="" fill="#000000" transform="translate(0,0)"/>
<path d="" fill="#000000" transform="translate(0,0)"/>
<path d="" fill="#000000" transform="translate(0,0)"/>
<path d="" fill="#000000" transform="translate(0,0)"/>
<path d="" fill="#000000" transform="translate(0,0)"/>
<path d="" fill="#000000" transform="translate(0,0)"/>
<path d="" fill="#000000" transform="translate(0,0)"/>
<path d="" fill="#000000" transform="translate(0,0)"/>
<path d="" fill="#000000" transform="translate(0,0)"/>
<path d="" fill="#000000" transform="translate(0,0)"/>
<path d="" fill="#000000" transform="translate(0,0)"/>
<path d="" fill="#000000" transform="translate(0,0)"/>
<path d="" fill="#000000" transform="translate(0,0)"/>
<path d="" fill="#000000" transform="translate(0,0)"/>
<path d="" fill="#000000" transform="translate(0,0)"/>
<path d="" fill="#000000" transform="translate(0,0)"/>
<path d="" fill="#000000" transform="translate(0,0)"/>
<path d="" fill="#000000" transform="translate(0,0)"/>
<path d="" fill="#000000" transform="translate(0,0)"/>
<path d="" fill="#000000" transform="translate(0,0)"/>
<path d="" fill="#000000" transform="translate(0,0)"/>
<path d="" fill="#000000" transform="translate(0,0)"/>
<path d="" fill="#000000" transform="translate(0,0)"/>
<path d="" fill="#000000" transform="translate(0,0)"/>
<path d="" fill="#000000" transform="translate(0,0)"/>
<path d="" fill="#000000" transform="translate(0,0)"/>
<path d="" fill="#000000" transform="translate(0,0)"/>
<path d="" fill="#000000" transform="translate(0,0)"/>
<path d="" fill="#000000" transform="translate(0,0)"/>
<path d="" fill="#000000" transform="translate(0,0)"/>
<path d="" fill="#000000" transform="translate(0,0)"/>
<path d="" fill="#000000" transform="translate(0,0)"/>
<path d="" fill="#000000" transform="translate(0,0)"/>
<path d="" fill="#000000" transform="translate(0,0)"/>
<path d="" fill="#000000" transform="translate(0,0)"/>
<path d="" fill="#000000" transform="translate(0,0)"/>
<path d="" fill="#000000" transform="translate(0,0)"/>
<path d="" fill="#000000" transform="translate(0,0)"/>
<path d="" fill="#000000" transform="translate(0,0)"/>
<path d="" fill="#000000" transform="translate(0,0)"/>
<path d="" fill="#000000" transform="translate(0,0)"/>
</svg>
