<?xml version="1.0" encoding="UTF-8"?>
<svg version="1.1" xmlns="http://www.w3.org/2000/svg" width="500" height="500">
<path d="M0 0 C165 0 330 0 500 0 C500 165 500 330 500 500 C335 500 170 500 0 500 C0 335 0 170 0 0 Z " fill="#030303" transform="translate(0,0)"/>
<path d="M0 0 C165 0 330 0 500 0 C500 165 500 330 500 500 C335 500 170 500 0 500 C0 335 0 170 0 0 Z M212.4375 33.25 C211.22036316 33.4032222 211.22036316 33.4032222 209.9786377 33.55953979 C199.65365503 34.88635321 189.93547004 36.81776855 180 40 C178.50654053 40.46212891 178.50654053 40.46212891 176.98291016 40.93359375 C156.12518709 47.46310376 137.05125962 56.76570582 119 69 C118.40799805 69.39977051 117.81599609 69.79954102 117.20605469 70.21142578 C109.70336401 75.31657916 102.79660044 80.7249603 96.20703125 86.96875 C94 89 94 89 91 91 C91 91.66 91 92.32 91 93 C90.41226807 93.26014893 89.82453613 93.52029785 89.21899414 93.78833008 C85.26277244 95.94860385 82.48775946 99.41813739 79.4375 102.6875 C78.72658203 103.44772461 78.01566406 104.20794922 77.28320312 104.99121094 C61.48668805 122.15047867 47.67558887 143.29046957 39 165 C38.51466797 166.175625 38.51466797 166.175625 38.01953125 167.375 C36.98690441 169.9071118 35.98944216 172.45073138 35 175 C34.52240234 176.19302734 34.52240234 176.19302734 34.03515625 177.41015625 C24.79597104 201.41719573 21.20346485 226.8441589 21.375 252.4375 C21.37731628 253.51896301 21.37963257 254.60042603 21.38201904 255.71466064 C21.46086928 274.43866596 23.22349109 291.87502586 28 310 C28.26151855 311.0115918 28.52303711 312.02318359 28.79248047 313.06542969 C31.42914894 323.03065853 34.74110082 332.60314061 39 342 C41.88622754 348.65868263 41.88622754 348.65868263 43 352 C43.66 352 44.32 352 45 352 C45.26039062 352.68578125 45.52078125 353.3715625 45.7890625 354.078125 C53.12203323 371.77187374 64.84499269 387.19894632 77.54296875 401.37109375 C78.97878689 402.97628454 80.39629113 404.59625861 81.8125 406.21875 C87.68124273 412.86687837 94.00870147 418.53587873 101 424 C102.85650886 425.53884535 104.71068047 427.08051479 106.5625 428.625 C127.1992668 445.46717036 151.53527179 458.21460539 177 466 C178.14597656 466.350625 179.29195312 466.70125 180.47265625 467.0625 C186.55881572 468.86384426 192.58582827 470.47385242 198.8581543 471.46459961 C201.05644836 471.83920983 203.2458899 472.26794668 205.42602539 472.73681641 C216.95101287 475.15716985 228.21813943 475.43020351 239.96630859 475.33618164 C243.12753721 475.31248098 246.2879229 475.31566022 249.44921875 475.32226562 C267.13525541 476.05900131 267.13525541 476.05900131 284 472 C285.56030251 471.77580119 287.1234505 471.57136242 288.6875 471.375 C340.46286659 462.97394893 391.41018991 428.89015948 422 386.75 C423.58166574 384.507917 425.13788022 382.25297636 426.66894531 379.97607422 C427.8634326 378.20274698 429.08914417 376.4593775 430.3359375 374.72265625 C441.80342894 358.35621732 449.70658552 338.88024345 456 320 C456.28617187 319.14148438 456.57234375 318.28296875 456.8671875 317.3984375 C458.72701981 311.51216412 460.01832478 305.53746182 461.25390625 299.4921875 C461.77675369 297.044933 462.37180035 294.61251517 463.01953125 292.1953125 C472.3041122 255.40069887 466.09022445 210.01346843 452 175.375 C451.7525 174.75882813 451.505 174.14265625 451.25 173.5078125 C439.35620371 144.0211092 422.76636983 119.17065175 401 96 C400.41863281 95.36449219 399.83726562 94.72898438 399.23828125 94.07421875 C393.47696039 87.99363074 386.6373353 83.07146599 380 78 C379.44521973 77.57332031 378.89043945 77.14664063 378.31884766 76.70703125 C368.97124269 68.40474126 368.97124269 68.40474126 358 64 C358 63.34 358 62.68 358 62 C346.66326575 56.22283002 346.66326575 56.22283002 335.09448242 50.93481445 C333.10986579 50.04903557 331.19887968 49.08093852 329.2734375 48.07421875 C322.90006212 44.87281195 316.12976861 42.87349193 309.34082031 40.74365234 C307.22447599 40.0713135 305.1247477 39.3620647 303.0234375 38.64453125 C274.14481859 29.25906905 242.17924466 29.45463236 212.4375 33.25 Z " fill="#FEFEFE" transform="translate(0,0)"/>
<path d="M0 0 C3.28126777 1.09943392 6.60209785 1.82734745 9.97583008 2.59985352 C16.06822996 4.05688702 21.70654774 5.96501487 27.44458008 8.51782227 C29.94951216 9.62992574 32.46783595 10.59010974 35.03833008 11.53735352 C53.43398761 18.92481599 70.47977374 31.59743494 85.16333008 44.72485352 C86.00895508 45.44930664 86.85458008 46.17375977 87.72583008 46.92016602 C98.1783689 55.99913403 107.61229179 66.10917975 115.16333008 77.72485352 C115.94691537 78.85575586 116.73360559 79.98451059 117.52270508 81.11157227 C123.23328751 89.34477472 127.97425045 97.77391352 132.25244141 106.82983398 C133.22145636 108.84577986 134.2399879 110.83244809 135.26098633 112.82250977 C136.88251509 116.05341365 138.14133265 119.26948507 139.22583008 122.72485352 C140.30678815 126.10284749 141.4087167 129.43207006 142.72583008 132.72485352 C146.2789695 142.17428376 147.77154915 152.00752149 149.16137695 161.95825195 C149.27803711 162.79001953 149.39469727 163.62178711 149.51489258 164.47875977 C149.61624512 165.22456299 149.71759766 165.97036621 149.82202148 166.73876953 C150.14638425 168.92565485 150.14638425 168.92565485 151.16333008 171.72485352 C151.28488406 174.54822106 151.35156608 177.34594979 151.36645508 180.17016602 C151.37215515 181.01344452 151.37785522 181.85672302 151.38372803 182.72555542 C151.39318364 184.51941679 151.39971423 186.31329558 151.40356445 188.10717773 C151.41312148 190.79126796 151.44407375 193.47454175 151.47583008 196.15844727 C151.54507892 207.36566123 150.49157954 217.77224339 148.16333008 228.72485352 C147.77218025 230.73621785 147.38262616 232.74789381 146.99536133 234.76000977 C146.65757264 236.43620646 146.31781866 238.11200866 145.97583008 239.78735352 C145.79858398 240.66456055 145.62133789 241.54176758 145.4387207 242.44555664 C145.01544966 244.53903235 144.58969116 246.63200494 144.16333008 248.72485352 C143.17333008 249.05485352 142.18333008 249.38485352 141.16333008 249.72485352 C140.47110352 248.32299805 140.47110352 248.32299805 139.76489258 246.89282227 C135.99246842 239.28510021 132.13830422 231.72888142 128.16333008 224.22485352 C124.03745703 216.43031575 120.04400273 208.57977558 116.13110352 200.67651367 C114.48400104 197.35488472 112.82286188 194.04028487 111.16333008 190.72485352 C110.49920247 189.39676107 109.83513998 188.06863606 109.17114258 186.74047852 C108.84146484 186.08112305 108.51178711 185.42176758 108.17211914 184.74243164 C106.63256836 181.66333008 106.63256836 181.66333008 105.09301758 178.58422852 C104.75206055 177.90247559 104.41110352 177.22072266 104.05981445 176.51831055 C103.38611507 175.17058974 102.71292645 173.82261347 102.0402832 172.47436523 C100.48135304 169.35105955 98.91522766 166.23201462 97.32739258 163.12329102 C96.77825195 162.04305664 96.22911133 160.96282227 95.66333008 159.84985352 C95.17864258 158.90368164 94.69395508 157.95750977 94.19458008 156.98266602 C93.16333008 154.72485352 93.16333008 154.72485352 93.16333008 152.72485352 C88.68099793 154.10351022 84.57350415 155.90039764 80.41333008 158.03735352 C78.99161299 158.75771733 77.56972546 159.47774483 76.14770508 160.19750977 C75.36073242 160.59728027 74.57375977 160.99705078 73.76293945 161.40893555 C68.74007358 163.95150195 63.70003709 166.45985235 58.66333008 168.97485352 C56.4367021 170.0880038 54.21014034 171.20128655 51.98364258 172.31469727 C41.71020508 177.45141602 31.43676758 182.58813477 21.16333008 187.72485352 C22.35011688 192.12564234 23.37358912 195.15398509 26.16333008 198.72485352 C28.13104201 202.97511129 29.74827942 207.26200144 31.16333008 211.72485352 C32.92676758 210.82766602 32.92676758 210.82766602 34.72583008 209.91235352 C37.82709961 208.35901258 40.9589298 206.9629191 44.15551758 205.61547852 C50.4261467 202.83395431 56.50913143 199.62843796 62.54223633 196.36938477 C63.29649902 195.96349121 64.05076172 195.55759766 64.82788086 195.1394043 C66.31774497 194.33510172 67.80453484 193.52507238 69.2878418 192.70874023 C72.901224 190.75813844 76.02049092 189.21939987 80.16333008 188.72485352 C83.23463718 193.11729937 85.70618029 197.56115704 87.97583008 202.41235352 C88.3000293 203.07557617 88.62422852 203.73879883 88.95825195 204.42211914 C91.28310216 209.36553726 91.28310216 209.36553726 90.16333008 212.72485352 C87.99794493 214.02725983 85.89812307 215.14703564 83.62817383 216.23657227 C82.95726212 216.56849075 82.2863504 216.90040924 81.59510803 217.24238586 C79.4348586 218.30851236 77.26813453 219.36065498 75.10083008 220.41235352 C73.69868004 221.10087608 72.2969822 221.79032035 70.89575195 222.48071289 C68.0743026 223.86950942 65.25072578 225.25383691 62.42553711 226.63500977 C53.68933583 230.91169929 44.96953443 235.22444826 36.36645508 239.76391602 C35.5337207 240.19833008 34.70098633 240.63274414 33.84301758 241.08032227 C32.17033153 241.95431417 30.50396313 242.84046942 28.84301758 243.73657227 C28.02575195 244.1580957 27.20848633 244.57961914 26.36645508 245.01391602 C25.65134766 245.39241699 24.93624023 245.77091797 24.19946289 246.16088867 C22.16333008 246.72485352 22.16333008 246.72485352 20.04199219 246.09375 C17.76641808 244.43564162 17.04843871 243.09530073 15.90161133 240.53344727 C15.5095752 239.67968506 15.11753906 238.82592285 14.71362305 237.94628906 C14.10091553 236.56824097 14.10091553 236.56824097 13.47583008 235.16235352 C12.59215026 233.23907932 11.70538563 231.31721975 10.81567383 229.39672852 C10.3720752 228.43702148 9.92847656 227.47731445 9.47143555 226.48852539 C7.61362039 222.56346613 5.59969388 218.73351707 3.53833008 214.91235352 C0.17361414 208.66168665 -3.06002248 202.36057254 -6.18676758 195.98730469 C-7.92560368 192.46227657 -9.79227588 189.08020081 -11.83666992 185.72485352 C-14.81839774 179.6549076 -14.81839774 179.6549076 -14.87573242 176.73657227 C-13.15004668 173.39548898 -9.77275533 172.50524403 -6.46166992 171.09985352 C-4.90128881 170.40332305 -3.34275708 169.702638 -1.78588867 168.99829102 C-0.97168457 168.63058594 -0.15748047 168.26288086 0.68139648 167.8840332 C5.50301951 165.63210854 10.1748561 163.09450789 14.86206055 160.57788086 C21.78471896 156.87701062 28.80683276 153.3816297 35.83395386 149.88500977 C40.05058821 147.78489616 44.26286523 145.67606583 48.47583008 143.56860352 C50.24664506 142.68315015 52.01747848 141.79773364 53.78833008 140.91235352 C54.67004883 140.47149414 55.55176758 140.03063477 56.46020508 139.57641602 C63.69458008 135.95922852 70.92895508 132.34204102 78.16333008 128.72485352 C77.47539183 123.92263572 76.2949599 120.80180385 73.72583008 116.66235352 C71.51732047 113.07986507 69.60855961 109.6828942 68.16333008 105.72485352 C63.92487477 106.3530566 60.60901136 107.82029977 56.79101562 109.74072266 C55.86286797 110.20446793 55.86286797 110.20446793 54.91596985 110.67758179 C52.87443254 111.69939331 50.83728253 112.72964834 48.80004883 113.76000977 C47.36605341 114.4798111 45.93178857 115.1990759 44.49726868 115.91783142 C40.71467924 117.81484974 36.93573801 119.71902602 33.15753174 121.62475586 C29.36926127 123.53407705 25.57771595 125.43686929 21.78637695 127.34008789 C17.4934444 129.49566908 13.20085432 131.65191474 8.91056824 133.8127594 C8.25418775 134.14334571 7.59780725 134.47393202 6.92153645 134.81453609 C5.62261289 135.46890256 4.32379774 136.12348427 3.02509594 136.77829075 C-0.3564483 138.48190313 -3.74212568 140.1766337 -7.13412476 141.85934448 C-7.84586696 142.21305083 -8.55760916 142.56675718 -9.2909193 142.93118191 C-10.63905253 143.60064745 -11.9880021 144.26847296 -13.33796406 144.9342432 C-16.51668393 146.51389287 -19.61631308 148.16055667 -22.67720032 149.95936584 C-25.83666992 151.72485352 -25.83666992 151.72485352 -27.83666992 151.72485352 C-26.56834304 154.28862116 -25.29710627 156.85087564 -24.02416992 159.41235352 C-23.66774414 160.13358398 -23.31131836 160.85481445 -22.9440918 161.59790039 C-21.42086201 164.65833455 -19.91198634 167.60645143 -18.07495117 170.49438477 C-16.83666992 172.72485352 -16.83666992 172.72485352 -16.83666992 176.72485352 C-19.18890989 177.99936192 -21.54333923 179.2695125 -23.89916992 180.53735352 C-24.55594727 180.8937793 -25.21272461 181.25020508 -25.8894043 181.61743164 C-30.12610184 183.89230865 -34.39037588 185.89198588 -38.83666992 187.72485352 C-37.25037636 193.21927815 -34.71244957 197.96383803 -32.02416992 202.97485352 C-25.6863231 214.94146738 -19.63080435 227.04533759 -13.58666992 239.16235352 C-13.10547699 240.12669312 -12.62428406 241.09103271 -12.12850952 242.08459473 C-9.36187531 247.63001123 -6.59807035 253.17682907 -3.83666992 258.72485352 C-3.2872876 258.45745361 -2.73790527 258.19005371 -2.171875 257.91455078 C0.33286323 256.69954808 2.84176285 255.49338948 5.35083008 254.28735352 C6.21514648 253.86647461 7.07946289 253.4455957 7.9699707 253.01196289 C8.81108398 252.60913086 9.65219727 252.20629883 10.51879883 251.79125977 C11.67351685 251.23353882 11.67351685 251.23353882 12.8515625 250.66455078 C15.2777785 249.67833203 17.58546223 249.15748872 20.16333008 248.72485352 C23.1948376 253.36127679 25.96446816 258.06767753 28.53833008 262.97485352 C29.06168945 263.97000977 29.58504883 264.96516602 30.12426758 265.99047852 C31.26460594 268.99136894 31.33150826 269.82058284 30.16333008 272.72485352 C28.57543945 273.9699707 28.57543945 273.9699707 26.50708008 275.02172852 C25.73976563 275.41924316 24.97245117 275.81675781 24.18188477 276.22631836 C23.35076172 276.63833496 22.51963867 277.05035156 21.66333008 277.47485352 C20.81416016 277.90878418 19.96499023 278.34271484 19.09008789 278.78979492 C12.74576561 282.00671734 6.33218009 285.08383203 -0.1394043 288.03637695 C-3.39873225 289.52983021 -6.50206879 291.09404948 -9.57104492 292.95141602 C-12.83666992 294.72485352 -12.83666992 294.72485352 -16.83666992 294.72485352 C-17.06999023 294.10223633 -17.30331055 293.47961914 -17.54370117 292.83813477 C-20.69411145 284.85635326 -24.56971248 277.38023928 -28.59985352 269.8137207 C-32.01388693 263.37714506 -35.21137511 256.8751529 -38.19921875 250.22998047 C-40.07771642 246.10808215 -42.2794749 242.45697598 -44.83666992 238.72485352 C-47.00568352 234.13655551 -48.54048872 229.61045959 -49.83666992 224.72485352 C-54.91560319 226.0271441 -59.42280616 227.81425693 -64.08666992 230.22485352 C-64.76487793 230.56943604 -65.44308594 230.91401855 -66.1418457 231.26904297 C-72.51733918 234.52321614 -78.84596191 237.8685305 -85.17382812 241.21411133 C-90.69064127 244.1302787 -96.23839723 246.96805705 -101.83666992 249.72485352 C-103.87887162 250.74461609 -105.92051063 251.76550607 -107.96166992 252.78735352 C-112.58666992 255.09985352 -117.21166992 257.41235352 -121.83666992 259.72485352 C-120.30863102 264.82367806 -118.12630136 269.38151011 -115.71166992 274.09985352 C-115.33913086 274.8359082 -114.9665918 275.57196289 -114.58276367 276.33032227 C-113.67105772 278.1303571 -112.7543706 279.92786754 -111.83666992 281.72485352 C-105.99533038 281.24630424 -101.96725399 279.52540346 -96.89916992 276.66235352 C-95.40529322 275.84427425 -93.91047664 275.02790927 -92.41479492 274.21313477 C-91.65875977 273.7988623 -90.90272461 273.38458984 -90.1237793 272.95776367 C-86.5058027 271.00742402 -82.83175156 269.17448596 -79.14916992 267.34985352 C-78.50278564 267.02879639 -77.85640137 266.70773926 -77.19042969 266.37695312 C-75.4063883 265.49182017 -73.62154794 264.60829818 -71.83666992 263.72485352 C-70.24918945 262.83926758 -70.24918945 262.83926758 -68.62963867 261.93579102 C-65.83666992 260.72485352 -65.83666992 260.72485352 -63.82324219 260.87402344 C-61.06817519 262.05399253 -60.55545937 263.45539598 -59.25854492 266.12719727 C-58.82026367 267.01729492 -58.38198242 267.90739258 -57.93041992 268.82446289 C-57.48698242 269.7609668 -57.04354492 270.6974707 -56.58666992 271.66235352 C-56.12776367 272.59499023 -55.66885742 273.52762695 -55.19604492 274.48852539 C-51.83666992 281.40223912 -51.83666992 281.40223912 -51.83666992 283.72485352 C-53.77807617 285.12719727 -53.77807617 285.12719727 -56.39916992 286.66235352 C-57.24608398 287.16637695 -58.09299805 287.67040039 -58.96557617 288.18969727 C-61.57648302 289.58573317 -64.2118726 290.7824364 -66.94238281 291.92333984 C-75.61450361 295.59270092 -84.35382183 299.47911888 -92.20776367 304.69750977 C-96.45552503 307.3765535 -100.91517811 308.8193661 -105.83666992 309.72485352 C-111.72017039 298.83411862 -117.33097354 287.83016154 -122.82055664 276.73657227 C-127.39307298 267.50505098 -132.10360739 258.36063265 -136.95385742 249.27172852 C-137.28482422 248.64717773 -137.61579102 248.02262695 -137.95678711 247.37915039 C-138.65997531 246.05706292 -139.37523009 244.74139582 -140.09448242 243.42797852 C-140.83666992 241.72485352 -140.83666992 241.72485352 -140.83666992 238.72485352 C-115.50333659 226.05818685 -90.17000326 213.39152018 -64.83666992 200.72485352 C-65.45513372 195.80613366 -67.5899334 191.87763998 -69.83666992 187.53735352 C-70.2053418 186.81354492 -70.57401367 186.08973633 -70.95385742 185.34399414 C-71.9099411 183.46846502 -72.87284601 181.59641675 -73.83666992 179.72485352 C-74.16666992 179.06485352 -74.49666992 178.40485352 -74.83666992 177.72485352 C-79.31834354 178.347384 -82.98860935 180.11322361 -86.96606445 182.15893555 C-87.66423279 182.51181641 -88.36240112 182.86469727 -89.08172607 183.22827148 C-90.59172023 183.9923002 -92.10034339 184.75904328 -93.60773087 185.52820206 C-95.99179049 186.74404285 -98.37987233 187.95161228 -100.76925659 189.1569519 C-107.55989572 192.58435563 -114.34304819 196.02644672 -121.12329102 199.47436523 C-125.27453575 201.5846615 -129.43055765 203.68528638 -133.58962631 205.78011703 C-135.17443553 206.58092625 -136.75730702 207.385582 -138.33819962 208.19409561 C-140.54304805 209.32161983 -142.75370284 210.43686883 -144.96606445 211.54956055 C-145.62067657 211.88821136 -146.2752887 212.22686218 -146.94973755 212.57577515 C-151.49488741 214.83878102 -151.49488741 214.83878102 -154.83666992 213.72485352 C-156.04418945 211.76977539 -156.04418945 211.76977539 -157.21948242 209.19360352 C-157.88016724 207.77253296 -157.88016724 207.77253296 -158.55419922 206.32275391 C-159.01866455 205.30044678 -159.48312988 204.27813965 -159.96166992 203.22485352 C-160.94712616 201.1076509 -161.93543298 198.99177287 -162.92651367 196.87719727 C-163.41748535 195.82902832 -163.90845703 194.78085937 -164.41430664 193.70092773 C-166.34145744 189.66866405 -168.40374041 185.72062657 -170.52416992 181.78735352 C-174.34109797 174.68235391 -177.98303435 167.50773591 -181.56420898 160.28149414 C-183.10250633 157.19073247 -184.65303632 154.1062251 -186.20385742 151.02172852 C-198.36532254 126.81941089 -198.36532254 126.81941089 -203.83666992 114.72485352 C-207.66764259 115.3316506 -210.68634729 116.47293498 -214.13745117 118.22875977 C-215.11391602 118.72182617 -216.09038086 119.21489258 -217.09643555 119.72290039 C-218.10383789 120.23916992 -219.11124023 120.75543945 -220.14916992 121.28735352 C-221.1759082 121.80749023 -222.20264648 122.32762695 -223.26049805 122.86352539 C-225.78868452 124.14525714 -228.31389392 125.43251413 -230.83666992 126.72485352 C-232.05186425 123.07927054 -231.49683209 122.11680088 -230.14916992 118.59985352 C-229.81530273 117.71040039 -229.48143555 116.82094727 -229.13745117 115.90454102 C-226.07525811 108.41918021 -222.66749682 101.33708122 -218.58666992 94.34985352 C-218.10286865 93.5191333 -217.61906738 92.68841309 -217.12060547 91.83251953 C-213.38791144 85.50182599 -209.37746087 79.50918058 -204.83666992 73.72485352 C-204.2153418 72.91274414 -203.59401367 72.10063477 -202.95385742 71.26391602 C-197.61293499 64.40937184 -191.78373796 58.05037134 -185.83666992 51.72485352 C-185.25401367 51.08805664 -184.67135742 50.45125977 -184.07104492 49.79516602 C-166.46739584 31.21353643 -141.64825489 16.37055566 -117.83666992 7.72485352 C-116.55787134 7.23827561 -115.27923437 6.75127281 -114.00073242 6.26391602 C-79.90173023 -6.50446853 -35.21017447 -12.35249726 0 0 Z " fill="#FDFDFD" transform="translate(289.836669921875,61.275146484375)"/>
<path d="M0 0 C1.30859375 1.93359375 1.30859375 1.93359375 2.4375 4.4375 C4.52980978 8.980615 6.78968759 13.37984485 9.1796875 17.7734375 C10.16858099 20.45757698 10.08634485 21.37668566 9 24 C7.01329041 25.41424561 7.01329041 25.41424561 4.36694336 26.71386719 C3.37758286 27.20828308 2.38822235 27.70269897 1.36888123 28.21209717 C0.28679886 28.73507385 -0.79528351 29.25805054 -1.91015625 29.796875 C-3.02498886 30.34933899 -4.13982147 30.90180298 -5.28843689 31.4710083 C-8.26796515 32.94446287 -11.25292872 34.40555523 -14.24127197 35.86096191 C-17.21838189 37.31424731 -20.18791051 38.78284363 -23.15820312 40.25 C-27.72108305 42.5016122 -32.28701516 44.74680868 -36.85620117 46.9855957 C-48.03584697 52.46570504 -59.17222538 58.00079686 -70.12304688 63.92773438 C-74.33869385 66.18712714 -78.57716721 68.17680365 -83 70 C-82.37861272 74.39113678 -80.70119796 77.97867318 -78.6875 81.875 C-78.34138672 82.55626953 -77.99527344 83.23753906 -77.63867188 83.93945312 C-73.96126328 91.14768383 -70.19422358 98.31037216 -66.43994141 105.47875977 C-63.43016267 111.23213008 -60.45924142 117.0013885 -57.5625 122.8125 C-57.24313477 123.45002197 -56.92376953 124.08754395 -56.59472656 124.74438477 C-55.20285052 127.53368365 -53.84691363 130.33243957 -52.54296875 133.1640625 C-52.11628906 134.07929688 -51.68960938 134.99453125 -51.25 135.9375 C-50.90453125 136.70964844 -50.5590625 137.48179687 -50.203125 138.27734375 C-49.11373145 140.1937731 -49.11373145 140.1937731 -46.859375 140.75390625 C-45.93898438 140.87572266 -45.93898438 140.87572266 -45 141 C-45.99 141.33 -46.98 141.66 -48 142 C-48.33 142.66 -48.66 143.32 -49 144 C-50.66059329 144.36237939 -52.32863294 144.69109702 -54 145 C-55.56976122 145.63808332 -57.11869454 146.3294375 -58.64453125 147.06640625 C-59.48564453 147.46923828 -60.32675781 147.87207031 -61.19335938 148.28710938 C-62.05767578 148.70798828 -62.92199219 149.12886719 -63.8125 149.5625 C-64.69615234 149.98724609 -65.57980469 150.41199219 -66.49023438 150.84960938 C-68.66264337 151.89471424 -70.83239957 152.94496762 -73 154 C-79.95124577 141.03325307 -86.58409584 127.91920298 -93.11328125 114.73632812 C-93.76521572 113.42297384 -94.41755641 112.10982112 -95.0703125 110.796875 C-95.54902802 109.83346191 -95.54902802 109.83346191 -96.03741455 108.85058594 C-98.70150587 103.52340767 -101.49697818 98.27098286 -104.38040161 93.05926514 C-106.34178458 89.45921142 -107.81918779 85.92510034 -109 82 C-106.29466468 80.53586529 -103.58599307 79.07859168 -100.875 77.625 C-100.11445313 77.2125 -99.35390625 76.8 -98.5703125 76.375 C-94.4541422 74.17497794 -90.50519306 72.30981651 -86 71 C-88.39040203 65.17857929 -91.23590808 59.74304193 -94.30273438 54.25390625 C-97 49.31976171 -97 49.31976171 -97 46 C-93.83477196 44.33059151 -90.66752835 42.66503917 -87.5 41 C-86.19869141 40.31357422 -86.19869141 40.31357422 -84.87109375 39.61328125 C-78.98309582 36.52102334 -73.05580647 33.51444559 -67.10186768 30.55177307 C-61.38520746 27.70293624 -55.68892329 24.81496327 -49.99511719 21.92074585 C-45.66382038 19.71990493 -41.32758294 17.52887069 -36.99035645 15.33974266 C-33.77324852 13.71536995 -30.55862137 12.08640044 -27.34863281 10.44799805 C-24.19720758 8.83975089 -21.04010173 7.24322164 -17.878685 5.65471077 C-16.10860874 4.76147676 -14.34467168 3.85611027 -12.58087158 2.95054626 C-10.9770462 2.14829369 -10.9770462 2.14829369 -9.34082031 1.32983398 C-8.40312805 0.85432602 -7.46543579 0.37881805 -6.49932861 -0.11109924 C-3.76548265 -1.08340746 -2.63392531 -1.15493472 0 0 Z " fill="#050505" transform="translate(359,167)"/>
<path d="M0 0 C3 1 3 1 4.76171875 4.03515625 C5.41359941 5.3727991 6.05480592 6.71567596 6.6875 8.0625 C7.39947426 9.53268061 8.11172132 11.00272912 8.82421875 12.47265625 C9.18563965 13.22691895 9.54706055 13.98118164 9.91943359 14.75830078 C11.57439693 18.19162055 13.28777415 21.59498141 15 25 C15.66966255 26.33704346 16.33893242 27.67428367 17.0078125 29.01171875 C17.33813477 29.67220215 17.66845703 30.33268555 18.00878906 31.01318359 C18.98597619 32.9718902 19.95846589 34.9328608 20.9296875 36.89453125 C24.51972353 44.13160237 28.20613491 51.30497592 32 58.4375 C35.59422714 65.19952055 38.95410968 72.03234654 42.16088867 78.9855957 C44.70926474 84.47855948 47.50408835 89.78166892 50.45703125 95.0703125 C52.1644441 98.31223563 53.5690986 101.62769332 55 105 C56.04432133 107.15473894 57.10743279 109.3004549 58.1875 111.4375 C58.8100487 112.67179791 59.43243843 113.90617601 60.0546875 115.140625 C60.3753418 115.77548828 60.69599609 116.41035156 61.02636719 117.06445312 C61.98578429 118.97173968 62.93588772 120.88335931 63.8828125 122.796875 C67.48604186 130.06772638 71.18882351 137.2733014 75 144.4375 C78.61697535 151.24149923 82.00027364 158.11732737 85.22460938 165.11523438 C87.583716 170.20798621 90.17329635 175.12635402 92.96875 179.99609375 C94 182 94 182 94 184 C89.66916508 182.50242157 86.12716854 180.22240999 82.4375 177.5625 C81.8290625 177.12655518 81.220625 176.69061035 80.59375 176.24145508 C75.28567138 172.35902595 70.48053242 168.07067478 65.71875 163.54296875 C63.79918352 161.74751217 61.89688681 160.06750291 59.8671875 158.41015625 C57.52923076 156.44487109 55.58145138 154.57390672 53.625 152.25 C51.8382492 150.14335058 50.05623211 148.05982139 48.1640625 146.046875 C32.07378174 128.84012578 20.51323743 106.80745964 12 85 C11.66484375 84.18144531 11.3296875 83.36289062 10.984375 82.51953125 C0.52933604 55.7596101 -0.49975832 28.30169788 0 0 Z " fill="#F9F9F9" transform="translate(46,237)"/>
<path d="M0 0 C-6.15453601 8.90471912 -12.58378053 17.39229436 -19.72119141 25.53320312 C-20.88529256 26.86843026 -22.02787674 28.22233991 -23.16796875 29.578125 C-36.6948394 45.3129464 -53.83620557 57.30541945 -71.9140625 67.24609375 C-75.05680711 68.98117104 -75.05680711 68.98117104 -78.13671875 71.109375 C-82.21140851 73.79989321 -86.4436995 75.29068677 -91 77 C-92.31952301 77.53128074 -93.63849171 78.06393939 -94.95703125 78.59765625 C-120.93641896 88.89972812 -150.68051451 94.74718672 -178.6875 91.5 C-179.51636719 91.4071875 -180.34523437 91.314375 -181.19921875 91.21875 C-181.79347656 91.1465625 -182.38773438 91.074375 -183 91 C-180.32026045 87.80380155 -176.87110441 86.27084119 -173.1875 84.5 C-171.75112627 83.79593148 -170.31493905 83.09148238 -168.87890625 82.38671875 C-167.71125732 81.81703369 -167.71125732 81.81703369 -166.52001953 81.23583984 C-161.8737961 78.95729082 -157.25138189 76.63099238 -152.625 74.3125 C-150.82561726 73.41256758 -149.02614058 72.51282298 -147.2265625 71.61328125 C-145.92755005 70.9632312 -145.92755005 70.9632312 -144.60229492 70.30004883 C-142.85622947 69.42775326 -141.10897843 68.55782715 -139.3605957 67.69018555 C-134.50086197 65.27478627 -129.70180487 62.78571448 -124.9375 60.1875 C-119.61955587 57.31613692 -114.23685121 54.6574419 -108.75 52.125 C-102.54654728 49.25874874 -96.47196674 46.2067244 -90.4375 43 C-78.2627206 36.53214844 -65.94405099 30.4330174 -53.5 24.5 C-40.62617128 18.35846283 -27.83117074 12.22085465 -15.48852539 5.05615234 C-4.25091296 -1.41697099 -4.25091296 -1.41697099 0 0 Z " fill="#F9F9F9" transform="translate(411,359)"/>
<path d="M0 0 C7.67906075 3.39235615 12.3088046 19.36396627 15.9453125 26.859375 C16.38020996 27.75382324 16.81510742 28.64827148 17.26318359 29.56982422 C18.64236591 32.41350413 20.01408744 35.26064841 21.3828125 38.109375 C22.03878418 39.46736206 22.03878418 39.46736206 22.70800781 40.8527832 C23.1150293 41.70573975 23.52205078 42.55869629 23.94140625 43.4375 C24.48559204 44.57300293 24.48559204 44.57300293 25.04077148 45.73144531 C25.90462049 47.76364717 26.47695342 49.70522836 26.9453125 51.859375 C12.71807249 52.65799346 -0.69403628 48.65118674 -14.12988281 44.45605469 C-15.82618649 43.93020915 -17.52980218 43.42807611 -19.234375 42.9296875 C-31.16965745 39.27470941 -42.28074641 33.08431874 -53.0546875 26.859375 C-53.0546875 26.199375 -53.0546875 25.539375 -53.0546875 24.859375 C-51.38802083 24.02604167 -49.72135417 23.19270833 -48.0546875 22.359375 C-46.97058594 21.81667969 -45.88648438 21.27398437 -44.76953125 20.71484375 C-42.1394294 19.39943634 -39.50604209 18.09082672 -36.87109375 16.78515625 C-36.16533203 16.43453125 -35.45957031 16.08390625 -34.73242188 15.72265625 C-33.34781431 15.03482719 -31.96242603 14.34856694 -30.57617188 13.6640625 C-27.77684224 12.27138902 -25.05980084 10.86246992 -22.3828125 9.2421875 C-20.04790754 7.85534798 -17.78065162 6.87738734 -15.2421875 5.921875 C-11.92015536 4.64455117 -8.80773321 3.24245118 -5.6796875 1.546875 C-2.0546875 -0.140625 -2.0546875 -0.140625 0 0 Z " fill="#F8F8F8" transform="translate(196.0546875,397.140625)"/>
</svg>
